<svg width="67" height="62" viewBox="0 0 67 62" fill="none" xmlns="http://www.w3.org/2000/svg">
<path d="M13.8457 17.2575H15.3914C16.2345 17.2575 16.5156 17.5195 16.5156 18.305V37.2935H22.5589V27.6029H31.2721V23.0195H22.5589V17.2575H33.0971V12.5433H13.8457V17.2575Z" fill="#E71C35"/>
<path d="M36.5108 37.1082C36.5108 32.3941 39.8838 29.775 44.2414 29.775C47.1924 29.775 49.5816 30.5606 52.1111 32.1321V27.1556C49.5137 25.598 46.4856 24.779 43.3968 24.7986C35.527 24.7986 30.3271 29.9059 30.3271 37.2391C30.3271 44.5723 35.8081 49.5487 43.8183 49.5487C46.9303 49.5875 49.9772 48.7174 52.5315 47.0605V41.9532C49.7208 43.6555 47.0505 44.4415 44.2398 44.4415C39.8834 44.3106 36.5108 41.6916 36.5108 37.1082Z" fill="#E71C35"/>
</svg>
