<svg width="327" height="327" viewBox="0 0 327 327" fill="none" xmlns="http://www.w3.org/2000/svg">
<path d="M51.5744 0H50.9204V88.6366H51.5744V0Z" fill="#C7C7C7"/>
<path d="M82.0247 118.309L79.5526 123.75H22.9358L20.4702 118.309L44.5701 101.625H57.9248L82.0247 118.309Z" fill="#EBEBEB"/>
<path d="M59.5992 85.5498L57.9249 101.625H44.5702L42.896 85.5498H59.5992Z" fill="#DBDBDB"/>
<path d="M82.0249 118.309L79.5462 123.75H22.936L20.4639 118.309H82.0249Z" fill="#DBDBDB"/>
<path d="M117.661 0H117.007V71.0833H117.661V0Z" fill="#C7C7C7"/>
<path d="M148.112 100.749L145.639 106.197H89.0227L86.5571 100.749L110.657 84.0652H124.012L148.112 100.749Z" fill="#EBEBEB"/>
<path d="M125.686 67.9963L124.012 84.0651H110.657L108.983 67.9963H125.686Z" fill="#DBDBDB"/>
<path d="M148.112 100.755L145.633 106.196H89.0229L86.5508 100.755H148.112Z" fill="#DBDBDB"/>
<path d="M31.7192 146.064L25.2642 156.47L28.4688 158.432C28.9179 158.724 29.2777 159.134 29.5085 159.618C29.7393 160.101 29.8321 160.639 29.7768 161.172C29.7243 161.765 29.7047 162.361 29.7179 162.957C29.7363 163.5 29.6042 164.037 29.3365 164.509C29.0687 164.981 28.6756 165.369 28.2007 165.632L24.9307 167.404L30.7382 178.222L34.0082 176.449C34.4734 176.2 34.9984 176.083 35.5255 176.112C36.0527 176.141 36.5617 176.314 36.997 176.613C37.5311 176.986 38.0857 177.328 38.6581 177.64C39.1231 177.895 39.5076 178.276 39.7687 178.738C40.0297 179.2 40.157 179.725 40.1362 180.256L40.0184 184.003L52.2613 184.382L52.3725 180.622C52.3897 180.09 52.5541 179.574 52.8474 179.131C53.1407 178.687 53.5514 178.334 54.0337 178.11C54.3214 177.973 54.6026 177.829 54.8839 177.679C55.1651 177.528 55.4398 177.371 55.7079 177.208C56.1593 176.93 56.6789 176.783 57.2088 176.783C57.7388 176.783 58.2584 176.93 58.7098 177.208L61.9209 179.17L68.3693 168.765L65.1582 166.77C64.7085 166.478 64.3483 166.068 64.1175 165.584C63.8866 165.101 63.7941 164.563 63.8502 164.03C63.9026 163.438 63.9222 162.844 63.9091 162.251C63.8914 161.708 64.0244 161.17 64.2933 160.698C64.5623 160.226 64.9567 159.838 65.4329 159.576L68.7029 157.804L62.915 147.013L59.6057 148.785C59.1257 149.036 58.5853 149.149 58.0448 149.111C57.5043 149.073 56.9851 148.885 56.545 148.569C56.0545 148.229 55.5444 147.915 55.0277 147.634C54.5514 147.386 54.1539 147.009 53.88 146.547C53.6061 146.085 53.4668 145.555 53.4778 145.018L53.6282 141.264L41.3918 140.878L41.2741 144.639C41.252 145.176 41.0814 145.696 40.7812 146.142C40.481 146.587 40.063 146.941 39.5737 147.163C39.299 147.287 39.0309 147.425 38.7628 147.569C38.4946 147.712 38.233 147.863 37.978 148.02C37.5186 148.302 36.99 148.452 36.4509 148.452C35.9117 148.452 35.3831 148.302 34.9238 148.02L31.7192 146.064ZM40.9667 154.488C42.6698 153.266 44.7129 152.608 46.8089 152.607C48.905 152.606 50.9488 153.261 52.6534 154.481C54.3579 155.701 55.6376 157.424 56.3127 159.408C56.9878 161.393 57.0244 163.539 56.4173 165.545C55.8103 167.551 54.5901 169.317 52.9282 170.594C51.2662 171.871 49.2459 172.596 47.151 172.666C45.0561 172.736 42.9919 172.149 41.2481 170.986C39.5043 169.823 38.1686 168.143 37.4286 166.181C36.6487 164.115 36.5727 161.848 37.2125 159.734C37.8522 157.62 39.1719 155.776 40.9667 154.488Z" fill="#EBEBEB"/>
<path d="M300.186 44.472C299.912 44.3114 299.688 44.0777 299.539 43.797C299.39 43.5164 299.322 43.1998 299.343 42.8828C299.343 42.7062 299.343 42.5296 299.343 42.353C299.343 42.1764 299.343 41.9933 299.343 41.8167C299.322 41.4997 299.39 41.1831 299.539 40.9025C299.688 40.6218 299.912 40.3882 300.186 40.2275L302.103 39.1223L298.506 32.8766L296.563 34.008C296.287 34.1664 295.972 34.2443 295.655 34.2327C295.337 34.2212 295.028 34.1206 294.765 33.9426C294.464 33.7529 294.156 33.5698 293.836 33.4063C293.553 33.2642 293.315 33.0468 293.147 32.7779C292.98 32.509 292.89 32.1992 292.888 31.8825V29.6523H285.694V31.8563C285.686 32.1701 285.592 32.4757 285.423 32.7398C285.253 33.0039 285.014 33.2163 284.732 33.354C284.412 33.5175 284.078 33.7006 283.804 33.8903C283.54 34.0683 283.232 34.1688 282.914 34.1804C282.596 34.192 282.281 34.1141 282.005 33.9557L280.089 32.8504L276.485 39.0961L278.408 40.2079C278.688 40.368 278.916 40.6042 279.067 40.889C279.217 41.1739 279.284 41.4956 279.258 41.8167C279.258 41.9933 279.258 42.1699 279.258 42.3465C279.258 42.5231 279.258 42.6996 279.258 42.8762C279.279 43.195 279.211 43.5134 279.061 43.7954C278.911 44.0774 278.685 44.3117 278.408 44.472L276.485 45.5772L280.089 51.8229L281.999 50.7177C282.274 50.5598 282.589 50.4816 282.906 50.492C283.224 50.5024 283.532 50.6009 283.797 50.7765C284.098 50.9752 284.41 51.1565 284.732 51.3194C285.015 51.4618 285.252 51.6795 285.418 51.9484C285.584 52.2173 285.673 52.527 285.674 52.8432V55.0472H292.868V52.8366C292.871 52.52 292.96 52.2101 293.128 51.9412C293.295 51.6724 293.533 51.4549 293.816 51.3128C294.137 51.1485 294.45 50.9673 294.752 50.77C295.015 50.5942 295.323 50.4956 295.639 50.4852C295.956 50.4748 296.269 50.5531 296.544 50.7111L298.46 51.8164L302.057 45.5707L300.186 44.472ZM289.304 48.2586C288.14 48.2586 287.002 47.9134 286.034 47.2667C285.066 46.6199 284.311 45.7006 283.866 44.6251C283.42 43.5496 283.304 42.3661 283.531 41.2243C283.758 40.0826 284.319 39.0338 285.142 38.2106C285.965 37.3874 287.014 36.8269 288.155 36.5997C289.297 36.3726 290.481 36.4892 291.556 36.9347C292.632 37.3802 293.551 38.1346 294.198 39.1026C294.845 40.0705 295.19 41.2085 295.19 42.3726C295.189 43.1467 295.035 43.913 294.738 44.6277C294.441 45.3423 294.005 45.9913 293.457 46.5374C292.908 47.0835 292.257 47.5161 291.541 47.8103C290.825 48.1046 290.058 48.2547 289.284 48.2521L289.304 48.2586Z" fill="#EBEBEB"/>
<path d="M137.942 208.534C137.686 208.384 137.473 208.17 137.324 207.914C137.175 207.657 137.095 207.366 137.092 207.069C137.092 206.775 137.092 206.487 137.092 206.193C137.06 205.898 137.077 205.599 137.144 205.31C137.216 205.021 137.365 204.756 137.575 204.545C137.797 204.35 138.044 204.186 138.308 204.054L139.832 203.165V203.198L136.196 196.972H136.281L134.279 198.149C133.911 198.332 133.491 198.383 133.089 198.293C132.711 198.175 132.352 198.003 132.023 197.783L131.526 197.501C131.343 197.406 131.177 197.28 131.035 197.129C130.746 196.827 130.57 196.434 130.538 196.017V193.695L130.689 193.845L123.495 193.911L123.717 193.695V196.023C123.696 196.357 123.591 196.68 123.41 196.962C123.229 197.244 122.979 197.474 122.684 197.632L122.193 197.926L121.703 198.214C121.513 198.333 121.306 198.422 121.088 198.476C120.648 198.573 120.187 198.52 119.78 198.325L117.753 197.168L118.145 197.063L114.568 203.322L114.45 202.884L116.477 204.048C116.763 204.244 116.994 204.508 117.151 204.816C117.307 205.125 117.384 205.468 117.373 205.814V206.389V206.958C117.377 207.18 117.346 207.4 117.282 207.612C117.146 208.054 116.862 208.435 116.477 208.691L114.45 209.855L114.561 209.443L118.132 215.702L117.766 215.604L119.8 214.46C120.208 214.268 120.669 214.22 121.108 214.322C121.318 214.377 121.518 214.463 121.703 214.577L122.2 214.872L122.69 215.159C122.881 215.264 123.053 215.399 123.201 215.558C123.495 215.88 123.671 216.293 123.698 216.729V219.064L123.521 218.887L130.715 218.959L130.61 219.064V216.742C130.641 216.335 130.812 215.951 131.094 215.656C131.391 215.396 131.721 215.176 132.075 215.002C132.402 214.788 132.756 214.619 133.128 214.499C133.518 214.406 133.929 214.454 134.286 214.636L136.294 215.8H136.248L139.871 209.568L137.942 208.534ZM137.942 208.534L139.858 209.633L136.281 215.885V215.918L134.266 214.773C133.925 214.608 133.536 214.566 133.168 214.656C132.79 214.77 132.432 214.942 132.108 215.166C131.767 215.339 131.452 215.559 131.173 215.82C130.919 216.094 130.769 216.448 130.748 216.82V219.136V219.24H130.643L123.449 219.312H123.279V219.09V216.781C123.252 216.441 123.109 216.12 122.874 215.872C122.755 215.75 122.618 215.646 122.468 215.565L121.958 215.277L121.448 214.989C121.304 214.903 121.147 214.841 120.983 214.806C120.655 214.733 120.311 214.774 120.009 214.924L118.047 216.095L117.818 216.232L117.681 215.996L114.051 209.77L113.901 209.509L114.162 209.358L116.124 208.201C116.385 208.021 116.577 207.758 116.667 207.455C116.712 207.302 116.734 207.144 116.732 206.984V206.396V205.807C116.734 205.648 116.712 205.489 116.667 205.336C116.576 205.035 116.381 204.776 116.118 204.604L114.156 203.44L113.875 203.283L114.038 203.008L117.661 196.782L117.812 196.527L118.06 196.671L120.022 197.828C120.314 197.972 120.646 198.012 120.964 197.939C121.124 197.906 121.277 197.844 121.415 197.756L121.925 197.469L122.442 197.181C122.587 197.104 122.72 197.004 122.834 196.887C123.066 196.645 123.205 196.331 123.227 195.997V193.702V193.473H123.443L130.637 193.538H130.8V193.688V195.997C130.824 196.357 130.969 196.698 131.212 196.965C131.487 197.225 131.797 197.446 132.134 197.619C132.442 197.839 132.782 198.011 133.141 198.129C133.499 198.214 133.875 198.175 134.207 198.018L136.228 196.887L136.281 196.854V196.906L139.858 203.165L138.328 204.041C138.065 204.169 137.82 204.331 137.602 204.525C137.392 204.73 137.243 204.987 137.17 205.271C137.101 205.558 137.081 205.854 137.111 206.147C137.111 206.441 137.111 206.736 137.111 207.024C137.104 207.326 137.178 207.625 137.323 207.89C137.469 208.156 137.683 208.378 137.942 208.534Z" fill="#EBEBEB"/>
<path d="M127.059 212.321C126.057 212.317 125.072 212.065 124.192 211.588C123.311 211.11 122.562 210.422 122.012 209.585C121.462 208.748 121.128 207.788 121.039 206.79C120.95 205.792 121.11 204.788 121.504 203.867C121.897 202.946 122.513 202.136 123.296 201.511C124.078 200.886 125.003 200.464 125.989 200.283C126.974 200.102 127.989 200.168 128.942 200.475C129.896 200.781 130.759 201.319 131.454 202.04C132.578 203.216 133.19 204.789 133.154 206.416C133.102 207.992 132.44 209.486 131.308 210.584C130.176 211.682 128.662 212.297 127.085 212.302L127.059 212.321ZM127.059 212.321C127.825 212.321 128.583 212.167 129.288 211.869C129.994 211.571 130.632 211.135 131.167 210.587C131.701 210.038 132.121 209.388 132.4 208.675C132.68 207.962 132.814 207.201 132.795 206.435C132.751 204.941 132.126 203.524 131.054 202.482C129.982 201.441 128.547 200.858 127.053 200.857C125.53 200.857 124.069 201.462 122.992 202.538C121.915 203.615 121.31 205.076 121.31 206.599C121.31 208.122 121.915 209.582 122.992 210.659C124.069 211.736 125.53 212.341 127.053 212.341L127.059 212.321Z" fill="#EBEBEB"/>
<path d="M20.1172 286.295L55.9629 286.138L91.8087 286.079L163.5 285.975L235.192 286.079L271.037 286.138L306.883 286.295L271.037 286.459L235.192 286.517L163.5 286.622L91.8087 286.517L55.9629 286.459L20.1172 286.295Z" fill="#263238"/>
<path d="M301.023 58.8665H192.59V168.464H301.023V58.8665Z" fill="#EBEBEB"/>
<path d="M242.444 52.2547C246.061 48.0102 252.254 46.99 258.245 48.1999C264.236 49.4098 271.41 52.4313 272.064 62.4506C272.6 70.5863 270.102 78.5193 270.102 87.5969C270.102 96.6744 280.376 118.786 263.935 129.577C249.161 139.269 219.227 130.368 218.305 110.415C217.579 94.6012 236.336 79.9778 238.311 73.719C240.286 67.4602 238.481 56.8981 242.444 52.2547Z" fill="#263238"/>
<path d="M239.743 61.1816C239.632 65.7073 238.978 70.2853 237.127 74.5559C236.647 75.6376 236.02 76.6477 235.264 77.5578C234.538 78.4734 233.766 79.3367 232.994 80.1738C231.438 81.8677 229.901 83.5484 228.416 85.2946C225.468 88.7157 223.031 92.5467 221.183 96.6677C219.411 100.808 218.437 105.246 218.312 109.748C218.128 107.476 218.196 105.19 218.515 102.933C218.868 100.664 219.453 98.4378 220.261 96.2884C221.964 91.9817 224.378 87.9914 227.402 84.4837C228.887 82.7113 230.463 81.0175 232.033 79.3432C233.602 77.669 235.192 76.0732 236.166 74.1112C237.165 72.1052 237.927 69.9894 238.435 67.8067C239.009 65.6278 239.446 63.4151 239.743 61.1816Z" fill="#263238"/>
<path d="M271.652 69.2847C271.541 73.9019 271.247 78.5126 271.371 83.0971C271.425 85.3804 271.617 87.6584 271.946 89.9184C272.287 92.142 272.954 94.3656 273.51 96.6153C274.065 98.8651 274.562 101.148 274.929 103.45C275.283 105.762 275.432 108.102 275.373 110.441C275.267 112.791 274.827 115.114 274.065 117.341C273.188 119.529 271.877 121.517 270.213 123.187C271.671 121.395 272.781 119.345 273.483 117.144C274.093 114.956 274.397 112.693 274.386 110.421C274.201 105.848 273.485 101.311 272.254 96.9031C271.731 94.6599 271.064 92.4363 270.743 90.0753C270.443 87.7621 270.325 85.4289 270.39 83.0971C270.528 78.4715 270.95 73.8587 271.652 69.2847Z" fill="#263238"/>
<path d="M247.866 108.113C232.824 124.672 220.548 132.625 208.449 132.625C196.945 132.625 172.368 104.692 170.563 101.01C169.007 97.8319 189.182 80.4421 192.282 82.6068C197.514 86.23 214.296 107.204 216.075 107.302C217.854 107.4 224.407 103.07 240.188 95.6803C249.776 91.2004 258.33 96.6351 247.866 108.113Z" fill="#EB9481"/>
<path d="M172.905 103.764C170.694 101.37 161.414 89.4213 159.576 85.5235C157.738 81.6256 153.285 70.0237 156.129 68.3167C158.974 66.6098 160.544 69.8994 160.544 69.8994C160.544 69.8994 159.439 64.7067 162.46 63.2482C165.482 61.7898 167.758 66.9891 167.758 66.9891C167.758 66.9891 167.012 61.574 170.125 60.3314C173.238 59.0888 174.664 64.7132 174.664 64.7132C174.664 64.7132 173.748 59.7886 176.744 59.8474C180.347 59.9194 181.008 69.1866 183.355 73.3395C183.885 74.2812 195.513 91.6515 195.513 91.6515L172.905 103.764Z" fill="#EB9481"/>
<path d="M174.54 64.2359C175.043 71.044 176.443 73.9413 180.426 79.3498C180.504 79.4545 180.367 79.5918 180.275 79.4937C175.874 74.5495 173.598 71.1748 174.193 64.2424C174.239 63.9024 174.513 63.9089 174.54 64.2359Z" fill="#263238"/>
<path d="M167.738 66.453C168.876 73.4835 170.354 76.6357 174.141 82.6068C174.193 82.6918 174.056 82.7899 173.997 82.7114C169.805 77.1589 167.607 73.7385 167.392 66.5641C167.378 66.2371 167.686 66.126 167.738 66.453Z" fill="#263238"/>
<path d="M160.753 70.2003C162.349 76.9299 163.834 80.455 168.242 85.7786C168.346 85.9094 168.17 86.0728 168.059 85.9551C163.036 80.9586 161.152 76.5702 160.557 70.2591C160.518 69.8406 160.655 69.7752 160.753 70.2003Z" fill="#263238"/>
<path d="M200.699 93.3127C200.699 93.3127 200.549 84.7518 199.653 81.0044C198.757 77.257 190.314 64.5302 187.43 66.2044C183.748 68.3626 187.188 76.6684 189.392 80.527C189.392 80.527 180.89 85.5236 182.047 92.0243C183.205 98.5251 200.699 93.3127 200.699 93.3127Z" fill="#EB9481"/>
<path d="M186.612 67.1266C184.65 71.5215 187.92 76.3938 189.784 80.2851C189.814 80.3411 189.83 80.4034 189.832 80.4669C189.833 80.5304 189.818 80.5933 189.79 80.6502C189.762 80.7071 189.721 80.7565 189.67 80.7943C189.619 80.832 189.559 80.857 189.497 80.8672C186.057 83.202 181.891 87.4857 181.838 91.8675C181.838 91.8935 181.828 91.9184 181.81 91.9368C181.791 91.9552 181.766 91.9656 181.74 91.9656C181.714 91.9656 181.689 91.9552 181.671 91.9368C181.652 91.9184 181.642 91.8935 181.642 91.8675C181.06 87.1587 184.807 82.6068 188.731 80.2982C186.769 76.3284 183.715 71.3057 186.573 67.0874L186.612 67.1266Z" fill="#263238"/>
<path d="M221.928 102.488L234.014 125.038C234.014 125.038 250.403 109.126 253.019 102.488C255.635 95.8502 252.817 91.0302 241.156 94.5814C234.494 96.5558 228.052 99.2051 221.928 102.488Z" fill="#E71C35"/>
<path d="M236.807 120.336C236.212 119.113 235.688 117.851 235.067 116.634C234.446 115.418 233.824 114.215 233.177 113.024C231.869 110.618 230.561 108.204 229.201 105.83C228.429 104.522 227.618 103.175 226.774 101.906C226.742 101.847 226.63 101.906 226.663 101.952C228.88 106.916 231.568 111.671 234.25 116.392C235.028 117.759 235.911 119.061 236.722 120.408C236.748 120.441 236.839 120.382 236.807 120.336Z" fill="#263238"/>
<path d="M253.02 102.488C250.404 109.127 234.014 125.038 234.014 125.038L225.872 109.872L252.732 95.0198C254.275 96.6286 254.256 99.3558 253.02 102.488Z" fill="#263238"/>
<path d="M224.682 140.453C224.682 140.453 218.037 156.358 220.385 168.457H293.646C291.266 135.568 274.87 107.302 265.184 98.1523C257.375 90.7752 249.155 91.4358 243.432 95.2093C242.085 96.1053 227.219 116.647 225.611 119.898C219.228 132.723 224.682 140.453 224.682 140.453Z" fill="#E71C35"/>
<path d="M243.942 94.2415C243.942 94.2415 239.364 107.407 242.019 108.093C248.625 109.794 257.486 99.0092 258.016 97.9105C258.147 97.6292 258.735 90.2587 259.174 84.5231C259.455 80.8345 259.671 77.8196 259.671 77.8196L243.373 83.4113L243.896 93.5156L243.942 94.2415Z" fill="#EB9481"/>
<path d="M243.347 83.4113L243.87 93.5156C247.186 93.0512 254.478 91.2527 259.147 84.5231C259.429 80.8345 259.644 77.8196 259.644 77.8196L257.604 78.4736L243.347 83.4113Z" fill="#263238"/>
<path d="M231.209 69.2651C231.013 74.399 231.523 78.5519 232.772 81.3118C233.842 83.6691 235.545 85.6836 237.691 87.1314C239.837 88.5791 242.343 89.4035 244.93 89.5129C246.892 89.5849 252.542 89.0682 256.63 85.9552C259.808 83.5354 261.724 79.1732 262.81 71.5018C265.295 53.9615 257.271 48.0624 249.364 47.3561C241.457 46.6498 231.863 51.5679 231.209 69.2651Z" fill="#EB9481"/>
<path d="M235.741 65.3542C236.153 65.2953 236.532 65.1776 236.931 65.086C237.365 65.047 237.775 64.8706 238.102 64.5825C238.184 64.4704 238.228 64.3353 238.228 64.1966C238.228 64.0579 238.184 63.9227 238.102 63.8107C237.898 63.6215 237.648 63.4897 237.377 63.4288C237.106 63.3679 236.823 63.3801 236.559 63.4641C235.995 63.5538 235.484 63.8498 235.126 64.2947C235.042 64.3977 234.991 64.524 234.98 64.6568C234.969 64.7895 235 64.9224 235.066 65.0375C235.133 65.1527 235.234 65.2448 235.354 65.3014C235.475 65.3579 235.61 65.3764 235.741 65.3542Z" fill="#263238"/>
<path d="M247.297 65.7924C246.896 65.7217 246.499 65.63 246.107 65.5177C245.673 65.4815 245.264 65.3021 244.943 65.0076C244.861 64.8956 244.817 64.7604 244.817 64.6217C244.817 64.483 244.861 64.3479 244.943 64.2359C245.148 64.0471 245.4 63.9166 245.672 63.858C245.945 63.7993 246.228 63.8146 246.493 63.9023C247.061 63.9932 247.575 64.2943 247.932 64.746C248.014 64.8506 248.062 64.9776 248.07 65.1103C248.078 65.2429 248.045 65.3748 247.976 65.4885C247.907 65.6021 247.805 65.692 247.684 65.7463C247.563 65.8006 247.428 65.8167 247.297 65.7924Z" fill="#263238"/>
<path d="M244.406 70.2135C244.406 70.1677 244.498 70.2723 244.498 70.3246C244.4 71.5215 244.498 72.9406 245.564 73.3723C245.564 73.3723 245.564 73.4442 245.564 73.4377C244.23 73.1892 244.125 71.3318 244.406 70.2135Z" fill="#263238"/>
<path d="M245.544 69.0035C247.506 68.9511 247.454 72.8424 245.649 72.8948C243.844 72.9471 243.942 69.0492 245.544 69.0035Z" fill="#263238"/>
<path d="M246.309 69.2195C246.643 69.4418 246.963 69.8342 247.382 69.8735C247.801 69.9127 248.219 69.5203 248.533 69.1279C248.566 69.0887 248.598 69.1279 248.598 69.1737C248.598 69.9192 248.311 70.6844 247.506 70.7891C246.702 70.8937 246.264 70.2136 246.08 69.4811C246.048 69.3241 246.172 69.1279 246.309 69.2195Z" fill="#263238"/>
<path d="M237.964 69.7032C237.964 69.6575 237.873 69.7621 237.873 69.8079C237.873 71.0178 237.749 72.4239 236.656 72.8032C236.624 72.8032 236.624 72.8751 236.656 72.8686C237.997 72.6855 238.193 70.8412 237.964 69.7032Z" fill="#263238"/>
<path d="M236.892 68.441C234.93 68.2906 234.793 72.1819 236.591 72.3192C238.39 72.4566 238.514 68.5718 236.892 68.441Z" fill="#263238"/>
<path d="M236.094 68.6701C235.78 68.8663 235.44 69.226 235.093 69.2391C234.747 69.2521 234.367 68.814 234.112 68.4019C234.112 68.3562 234.054 68.4019 234.047 68.4412C234.001 69.1867 234.211 69.965 234.923 70.1416C235.636 70.3182 236.074 69.6772 236.277 68.9448C236.29 68.8009 236.192 68.5916 236.094 68.6701Z" fill="#263238"/>
<path d="M244.289 79.5787C244.008 79.873 243.733 80.2719 243.301 80.3243C242.853 80.3276 242.408 80.2408 241.993 80.0692C241.985 80.0623 241.975 80.0587 241.965 80.0593C241.954 80.0599 241.945 80.0647 241.938 80.0725C241.931 80.0803 241.927 80.0905 241.928 80.1009C241.928 80.1114 241.933 80.1211 241.941 80.1281C242.122 80.3589 242.363 80.5366 242.637 80.6424C242.911 80.7483 243.208 80.7785 243.497 80.7297C243.739 80.6542 243.954 80.5102 244.115 80.3152C244.276 80.1201 244.378 79.8825 244.407 79.631C244.41 79.6161 244.409 79.6003 244.402 79.5865C244.395 79.5727 244.384 79.5617 244.37 79.5554C244.356 79.5492 244.34 79.5481 244.325 79.5524C244.31 79.5566 244.297 79.5659 244.289 79.5787Z" fill="#263238"/>
<path d="M239.364 75.1119C239.364 75.1119 239.076 76.9104 239.063 77.7606C239.063 77.8391 239.266 77.8784 239.554 77.9045C239.554 77.9045 239.554 77.9045 239.586 77.9045C240.308 78.0473 241.056 77.9899 241.747 77.7386C242.439 77.4873 243.049 77.0516 243.51 76.4788C243.569 76.4003 243.465 76.3088 243.386 76.3611C242.287 77.0769 240.987 77.4208 239.678 77.3421C239.626 77.1001 240.273 74.2814 240.136 74.2683C239.466 74.3098 238.806 74.4441 238.174 74.6672C238.664 70.9067 239.75 67.2574 240.175 63.51C240.175 63.3792 239.998 63.3334 239.959 63.4511C238.547 67.192 237.893 71.5084 237.284 75.3735C237.232 75.864 238.998 75.2558 239.364 75.1119Z" fill="#263238"/>
<path d="M240.097 77.4598C240.515 78.1009 241.092 78.6234 241.771 78.9771C242.145 79.1555 242.565 79.2148 242.974 79.1471C243.87 78.9836 243.955 78.1792 243.851 77.4794C243.787 77.107 243.682 76.7428 243.537 76.3938C242.533 77.1072 241.328 77.4807 240.097 77.4598Z" fill="#263238"/>
<path d="M241.771 78.977C242.145 79.1554 242.565 79.2148 242.974 79.1471C243.87 78.9836 243.955 78.1791 243.85 77.4794C243.386 77.4586 242.928 77.5951 242.55 77.8669C242.173 78.1387 241.898 78.5298 241.771 78.977Z" fill="#FF98B9"/>
<path d="M262.489 69.9257C260.56 69.9845 255.086 65.1711 254.092 55.9235C254.092 55.9235 255.564 64.1639 256.296 65.3215C257.029 66.4791 253.235 62.6074 252.326 55.1649C252.326 55.1649 248.468 58.5265 245.028 59.8345C241.588 61.1425 239.436 61.3125 239.142 61.0771C238.847 60.8416 243.903 58.7357 245.158 56.9961C245.158 56.9961 236.179 62.2281 231.889 62.9344C231.392 63.0129 232.229 55.2892 238.514 50.3188C244.799 45.3484 253.438 46.591 256.538 49.0762C256.538 49.0762 259.926 49.2527 264.007 53.8634C268.088 58.4741 264.563 69.8603 262.489 69.9257Z" fill="#263238"/>
<path d="M259.945 72.7509C259.945 72.7509 263.536 67.0415 266.106 68.2971C268.676 69.5528 266.171 77.6951 263.287 78.9312C262.928 79.1167 262.535 79.2275 262.133 79.2569C261.73 79.2863 261.325 79.2337 260.943 79.1023C260.561 78.9708 260.209 78.7633 259.91 78.4922C259.61 78.2211 259.369 77.8921 259.2 77.5251L259.945 72.7509Z" fill="#EB9481"/>
<path d="M265.328 70.6321C265.38 70.6321 265.387 70.6909 265.328 70.7106C263.307 71.6458 262.32 73.6143 261.652 75.6352C262.235 74.8373 263.045 74.3795 264.105 75.0597C264.157 75.0924 264.105 75.1839 264.053 75.1708C263.689 75.0819 263.306 75.1055 262.956 75.2386C262.605 75.3717 262.304 75.6081 262.091 75.9164C261.738 76.4451 261.44 77.0082 261.201 77.5972C261.116 77.7868 260.776 77.7084 260.841 77.4925C260.839 77.4752 260.839 77.4575 260.841 77.4402C260.658 74.7981 262.522 71.0179 265.328 70.6321Z" fill="#263238"/>
<path d="M270.854 101.743C278.1 110.108 298.414 140.388 293.705 148.569C289.186 156.417 278.938 158.628 273.038 148.085C268.794 140.545 261.659 118.047 259.887 107.256C258.448 98.5187 264.157 94.0061 270.854 101.743Z" fill="#EB9481"/>
<path d="M264.085 128.55L288.1 119.728C288.1 119.728 274.621 101.278 268.415 97.7664C262.208 94.2544 257.042 96.3734 258.938 108.414C259.959 115.284 261.684 122.032 264.085 128.55Z" fill="#E71C35"/>
<path d="M283.836 116.301C282.528 116.726 281.22 117.066 279.912 117.511C278.604 117.955 277.348 118.407 276.079 118.884C273.509 119.839 270.946 120.794 268.401 121.821C266.976 122.396 265.55 123.017 264.157 123.671C264.092 123.671 264.118 123.809 264.157 123.789C269.389 122.285 274.464 120.284 279.513 118.289C280.978 117.707 282.384 116.981 283.829 116.399C283.927 116.373 283.882 116.281 283.836 116.301Z" fill="#263238"/>
<path d="M265.439 127.988C264.964 128.093 264.498 128.237 264.046 128.419C263.392 127 261.842 120.761 261.483 119.159C260.763 115.967 260.175 112.743 259.422 109.551C259.422 109.46 259.246 109.486 259.259 109.551C259.481 111.324 259.756 113.09 260.063 114.842C259.736 114.005 259.409 113.162 259.154 112.305C259.157 112.299 259.158 112.292 259.157 112.286C259.157 112.279 259.155 112.273 259.151 112.268C259.148 112.262 259.143 112.258 259.137 112.255C259.131 112.251 259.125 112.25 259.118 112.25C259.112 112.25 259.105 112.251 259.1 112.255C259.094 112.258 259.089 112.262 259.086 112.268C259.082 112.273 259.08 112.279 259.079 112.286C259.079 112.292 259.08 112.299 259.082 112.305C259.38 113.369 259.744 114.413 260.175 115.431C260.43 118.701 263.405 129.093 263.49 129.054C264.163 128.749 264.818 128.406 265.452 128.027C265.524 128.047 265.524 127.981 265.439 127.988Z" fill="#263238"/>
<path d="M253.563 66.4267L246.728 95.6016C246.434 96.4583 246.872 97.1451 247.709 97.132L260.757 99.7872C261.214 99.7454 261.65 99.5744 262.013 99.2941C262.377 99.0139 262.653 98.636 262.81 98.2045L269.644 69.0296C269.939 68.1729 269.501 67.4862 268.663 67.5058L255.616 64.844C255.159 64.8858 254.723 65.0569 254.36 65.3371C253.996 65.6173 253.72 65.9952 253.563 66.4267Z" fill="#A6A6A6"/>
<path d="M254.681 66.5902L247.866 95.7652C247.572 96.6219 248.01 97.3086 248.847 97.2955L261.894 99.9508C262.351 99.9095 262.786 99.7394 263.15 99.4604C263.513 99.1814 263.79 98.8049 263.948 98.3746L270.756 69.1997C271.05 68.3364 270.612 67.6563 269.775 67.6693L256.734 65.0076C256.278 65.0517 255.843 65.2236 255.48 65.5035C255.117 65.7834 254.84 66.1601 254.681 66.5902Z" fill="#DBDBDB"/>
<path d="M258.814 67.8459C258.82 68.1076 258.748 68.3651 258.607 68.5853C258.465 68.8055 258.261 68.9781 258.02 69.0809C257.779 69.1837 257.513 69.212 257.256 69.162C257 69.112 256.764 68.9861 256.579 68.8006C256.394 68.615 256.27 68.3784 256.221 68.1212C256.172 67.8641 256.202 67.5982 256.306 67.3581C256.41 67.1179 256.584 66.9145 256.805 66.7741C257.026 66.6338 257.283 66.5629 257.545 66.5706C257.882 66.5724 258.205 66.7075 258.443 66.9465C258.68 67.1855 258.814 67.5088 258.814 67.8459Z" fill="#263238"/>
<path d="M276.524 150.727C280.769 158.575 292.005 154.102 293.705 148.569C297.694 135.587 295.222 114.005 292.842 101.952C292.077 98.0739 265.733 101.952 265.89 106.144C266.073 111.213 268.206 135.293 276.524 150.727Z" fill="#EB9481"/>
<path d="M292.548 107.714C293.875 101.995 293.955 96.0571 292.783 90.3043C291.396 84.0324 286.864 70.7301 268.644 64.7983C264.321 63.3857 257.16 64.4386 263.412 69.3044C267.833 72.764 271.678 73.6208 273.876 76.106C273.876 76.106 264.929 78.5258 263.686 82.9076C262.599 86.743 261.783 90.6506 261.247 94.6011C261.948 94.8637 262.664 95.0821 263.392 95.2551C263.008 99.0702 263.896 102.905 265.917 106.164L292.548 107.714Z" fill="#EB9481"/>
<path d="M290.5 84.5295C287.793 82.5675 281.998 78.395 276.054 76.6815C269.461 74.7195 256.257 72.8229 254.884 77.6952C253.876 81.2726 258.853 82.4563 258.853 82.4563C258.853 82.4563 253.229 82.8095 253.026 86.2364C252.843 89.3625 256.748 90.0492 256.748 90.0492C256.748 90.0492 253.373 90.8471 253.772 93.8948C254.256 97.5506 261.26 95.2747 264.955 98.5578C265.786 99.2772 290.5 84.5295 290.5 84.5295Z" fill="#EB9481"/>
<path d="M275.177 83.9604C272.325 82.4955 264.988 80.8409 258.958 82.3385C258.82 82.3385 258.775 82.4889 258.905 82.4889C264.367 82.3416 269.826 82.8554 275.164 84.0193C275.196 84.0324 275.21 83.9735 275.177 83.9604Z" fill="#263238"/>
<path d="M273.045 90.5528C270.429 89.5457 262.81 88.1723 256.754 89.8988C256.617 89.9381 256.577 90.0623 256.708 90.0558C262.162 89.6201 267.647 89.8088 273.058 90.6182C273.067 90.6165 273.074 90.6114 273.079 90.604C273.084 90.5967 273.086 90.5877 273.084 90.579C273.083 90.5703 273.077 90.5627 273.07 90.5578C273.063 90.5529 273.054 90.5511 273.045 90.5528Z" fill="#263238"/>
<path d="M274.117 145.26C273.921 144.606 273.732 143.952 273.522 143.357C273.091 142.049 272.718 140.741 272.338 139.433C271.567 136.817 270.828 134.162 270.18 131.493C268.888 126.175 267.908 120.785 267.244 115.353C267.061 113.848 266.904 112.344 266.74 110.84C266.577 109.336 266.524 107.773 266.237 106.262C266.237 106.184 265.471 105.032 265.171 104.464C264.858 103.872 264.585 103.26 264.353 102.632C263.864 101.352 263.533 100.017 263.366 98.656C263.362 98.6475 263.356 98.6402 263.349 98.6351C263.341 98.6299 263.332 98.6272 263.323 98.6272C263.314 98.6272 263.305 98.6299 263.297 98.6351C263.29 98.6402 263.284 98.6475 263.281 98.656C263.196 100.204 263.391 101.755 263.856 103.234C264.259 104.471 264.955 105.593 265.883 106.504C265.883 106.7 265.929 109.12 266.008 110.474C266.086 111.828 266.21 113.181 266.361 114.529C266.668 117.236 267.048 119.937 267.525 122.625C268.458 128.062 269.756 133.431 271.41 138.694C271.41 138.779 271.469 138.864 271.495 138.949C271.495 139.145 271.495 139.341 271.495 139.538C271.505 140.021 271.544 140.504 271.613 140.983C271.747 141.936 271.981 142.872 272.312 143.775C272.309 143.783 272.308 143.792 272.309 143.8C272.311 143.809 272.314 143.817 272.318 143.824C272.323 143.83 272.33 143.836 272.337 143.84C272.345 143.844 272.353 143.846 272.361 143.846C272.37 143.846 272.378 143.844 272.386 143.84C272.393 143.836 272.4 143.83 272.404 143.824C272.409 143.817 272.412 143.809 272.413 143.8C272.414 143.792 272.413 143.783 272.41 143.775C272.178 142.83 272.021 141.868 271.94 140.898L271.822 139.904C272.182 140.963 272.561 142.023 272.934 143.076C273.195 143.808 273.463 144.521 273.764 145.234C274.065 145.947 274.3 146.64 274.654 147.3C274.654 147.353 274.758 147.301 274.745 147.261C274.582 146.561 274.32 145.921 274.117 145.26Z" fill="#263238"/>
<path d="M192.59 168.457V150.878L172.61 168.457H192.59Z" fill="#EBEBEB"/>
<path d="M89.9054 205.729C95.6606 230.771 107.563 260.789 112.645 265.661C119.074 271.822 161.603 283.123 163.722 283.352C168.954 283.882 179.503 246.074 173.905 245.257C165.403 244.027 134.43 242.346 132.579 240.443C130.728 238.54 117.583 221.968 104.15 203.348C94.8758 190.484 86.328 190.19 89.9054 205.729Z" fill="#AD6359"/>
<path d="M159.511 281.312C160.132 281.626 169.02 286.099 174.514 287.688C178.614 288.879 190.504 291.985 192.263 287.597C193.467 284.614 186.685 281.966 181.937 279.984C179.432 278.938 176.345 276.322 177.084 274.713C178.392 271.901 184.821 274.713 189.059 277.185C197.253 281.946 208.168 290.52 213.172 286.341C215.062 284.771 212.864 281.907 209.653 279.101C214.885 282.371 220.431 285.053 222.596 283.392C223.845 282.443 223.904 281.142 223.21 279.664C224.819 280.187 226.238 280.082 227.233 279.01C228.926 277.231 228.102 274.615 226.245 271.927C226.564 271.894 226.87 271.785 227.139 271.61C227.407 271.435 227.63 271.198 227.788 270.92C231.379 265.446 213.4 249.73 207.194 248.259C188.915 243.91 169.648 244.72 169.648 244.72C162.467 250.482 159.491 281.299 159.511 281.312Z" fill="#AD6359"/>
<path d="M186.39 264.484C190.742 265.164 194.9 266.762 198.587 269.173C203.224 272.234 206.298 275.818 210.183 279.421C210.198 279.442 210.206 279.467 210.205 279.492C210.204 279.518 210.194 279.542 210.177 279.562C210.16 279.581 210.137 279.594 210.112 279.598C210.087 279.602 210.061 279.597 210.039 279.585C208.188 277.871 200.51 271.423 198.528 269.958C194.944 267.261 190.793 265.413 186.39 264.556C186.331 264.549 186.344 264.471 186.39 264.484Z" fill="#263238"/>
<path d="M189.798 256.721C194.604 258.029 199.529 259.337 203.989 261.639C208.868 264.124 212.688 268.179 216.415 272.103C218.674 274.444 220.878 276.842 223.027 279.297C223.112 279.402 222.975 279.565 222.883 279.461C219.073 275.432 215.149 271.508 211.111 267.689C207.375 264.142 202.974 261.368 198.162 259.527C195.415 258.474 192.59 257.643 189.765 256.806C189.726 256.793 189.745 256.708 189.798 256.721Z" fill="#263238"/>
<path d="M194.931 249.939C199.601 250.901 203.675 251.718 207.809 254.216C213.283 257.532 218.567 263.111 220.418 265.092C222.465 267.277 224.44 269.526 226.376 271.809C226.454 271.901 226.297 272.044 226.212 271.953C221.776 266.948 217.02 262.236 211.975 257.846C209.601 255.721 206.914 253.974 204.009 252.666C201.064 251.51 198.024 250.609 194.925 249.972C194.925 249.972 194.892 249.933 194.931 249.939Z" fill="#263238"/>
<path d="M166.705 243.216L153.625 284.654C153.625 284.654 118.211 274.543 111.769 267.564C105.327 260.586 93.352 224.551 89.8401 207.083C86.3281 189.614 95.1571 190.079 103.273 201.059C111.389 212.04 131.598 238.762 132.703 239.344C133.808 239.926 166.705 243.216 166.705 243.216Z" fill="#E71C35"/>
<path opacity="0.1" d="M166.705 243.216L153.625 284.654C153.625 284.654 118.211 274.543 111.769 267.564C105.327 260.586 93.352 224.551 89.8401 207.083C86.3281 189.614 95.1571 190.079 103.273 201.059C111.389 212.04 131.598 238.762 132.703 239.344C133.808 239.926 166.705 243.216 166.705 243.216Z" fill="black"/>
<path d="M150.224 266.243C151.813 261.358 153.435 256.486 154.835 251.541C155.633 248.736 156.444 245.923 157.215 243.111C157.248 243 157.071 242.941 157.032 243.046C155.247 247.885 153.468 252.745 151.905 257.663C150.342 262.581 148.753 267.473 147.261 272.358C146.418 275.157 145.653 277.969 144.979 280.814C144.979 280.867 145.057 280.899 145.077 280.847C147.026 276.066 148.628 271.161 150.224 266.243Z" fill="#263238"/>
<path d="M135.764 278.957L134.194 278.408C131.245 277.355 128.236 276.224 125.404 275.066C125.038 274.922 124.679 274.772 124.325 274.621C123.756 274.386 123.187 274.144 122.638 273.902L121.814 273.542L121.52 273.411L120.669 273.019C119.545 272.502 118.479 271.986 117.484 271.462L116.83 271.096C115.277 270.297 113.812 269.334 112.462 268.225C112.338 268.114 112.213 268.003 112.102 267.892C111.991 267.78 111.873 267.669 111.775 267.565C105.3 260.586 93.3584 224.551 89.8465 207.083L89.7287 206.481V206.35C89.4933 205.042 89.284 203.381 89.114 201.602C88.6235 192.91 92.7371 191.491 97.8187 195.311C110.487 222.497 129.891 267.421 135.764 278.957Z" fill="#263238"/>
<path d="M117.393 285.916L40.2212 286.321C40.2866 284.66 51.2738 236.068 60.0112 218.135C71.2143 195.14 77.0152 193.283 80.4356 192.053C84.8501 190.471 92.7112 191.256 94.5751 192.139C96.6941 193.126 103.43 204.885 105.844 213.511C110.67 230.862 118.479 284.856 117.393 285.916Z" fill="#EBEBEB"/>
<path d="M76.4787 193.872C76.4787 193.872 86.2887 230.201 86.7792 232.615C87.5182 236.12 92.4102 286.138 92.4102 286.138L38.6187 286.321C38.6187 286.321 50.358 240.018 59.0954 219.744C68.6307 197.508 76.4787 193.872 76.4787 193.872Z" fill="#E71C35"/>
<g opacity="0.1">
<path d="M76.4787 193.872C76.4787 193.872 86.2887 230.201 86.7792 232.615C87.5182 236.12 92.4102 286.138 92.4102 286.138L38.6187 286.321C38.6187 286.321 50.358 240.018 59.0954 219.744C68.6307 197.508 76.4787 193.872 76.4787 193.872Z" fill="black"/>
</g>
<path d="M95.2812 192.701C95.569 193.859 104.614 223.374 105.242 230.731C105.941 238.893 112.128 286.321 112.128 286.321H119.976C119.976 286.321 108.616 218.181 105.497 210.98C99.1137 196.285 95.2812 192.701 95.2812 192.701Z" fill="#E71C35"/>
<path opacity="0.1" d="M95.2812 192.701C95.569 193.859 104.614 223.374 105.242 230.731C105.941 238.893 112.128 286.321 112.128 286.321H119.976C119.976 286.321 108.616 218.181 105.497 210.98C99.1137 196.285 95.2812 192.701 95.2812 192.701Z" fill="black"/>
<path d="M66.3221 202.367C53.3991 216.212 21.9809 268.741 31.9479 278.323C41.9148 287.904 97.2498 275.007 112.789 267.597C117.413 265.4 99.8462 236.571 94.4114 235.898C89.8857 235.342 66.7603 245.917 66.0867 244.589C65.3346 243.085 69.0101 231.987 74.5887 211.889C80.9913 188.725 72.0381 196.246 66.3221 202.367Z" fill="#AD6359"/>
<path d="M117.38 226.598C128.616 225.029 131.768 226.356 140.525 219.999C146.287 215.827 151.427 217.717 148.138 224.342C142.762 235.185 128.688 240.247 123.286 240.6L117.38 226.598Z" fill="#AD6359"/>
<path d="M87.5312 237.402C87.5312 237.402 100.16 230.391 111.971 227.54C120.133 225.578 138.38 223.256 155.842 241.274C159.981 245.544 162.852 254.569 153.559 250.05C146.954 246.839 143.749 242.81 139.557 241.64C139.557 241.64 141.846 253.549 137.405 257.532C133.524 261.012 129.4 264.212 125.064 267.107C124.351 266.436 123.683 265.719 123.063 264.961C123.063 264.961 118.564 268.29 110.101 267.479L87.5312 237.402Z" fill="#AD6359"/>
<path d="M120.068 226.938C123.992 228.972 132.173 233.426 137.615 239.403C143.664 246.048 153.52 260.462 148.569 264.909C144.946 268.147 140.721 262.947 140.721 262.947C140.721 262.947 143.54 269.768 139.622 271.972C136.058 273.987 133.011 269.788 133.011 269.788C133.011 269.788 134.011 274.216 130.198 275.491C125.62 277.021 124.273 267.486 118.289 265.027C116.922 264.438 120.068 226.938 120.068 226.938Z" fill="#AD6359"/>
<path d="M129.538 244.596C132.893 247.114 139.054 254.786 140.754 262.732C140.793 262.915 140.682 263.039 140.61 262.882C137.656 256.379 133.922 250.258 129.492 244.655C129.44 244.596 129.492 244.596 129.538 244.596Z" fill="#263238"/>
<path d="M123.011 250.894C125.686 253.366 131.683 261.554 133.129 269.67C133.161 269.853 133.037 269.971 132.978 269.808C130.359 263.162 126.996 256.835 122.952 250.946C122.913 250.907 122.952 250.861 123.011 250.894Z" fill="#263238"/>
<path d="M139.557 241.561C143.22 242.64 145.6 244.439 148.713 246.584C150.228 247.667 151.803 248.664 153.429 249.573C154.92 250.377 157.124 251.594 158.706 250.331C159.596 249.632 159.583 248.369 159.36 247.343C158.913 245.856 158.233 244.45 157.346 243.177C157.346 243.124 157.392 243.065 157.431 243.111C158.288 244.272 159.024 245.516 159.628 246.826C160.024 247.723 160.141 248.719 159.962 249.684C159.419 251.698 157.039 251.966 155.384 251.41C154.381 251.042 153.417 250.575 152.506 250.017C151.617 249.507 150.754 248.958 149.89 248.382C148.151 247.205 146.483 245.93 144.757 244.733C143.079 243.607 141.332 242.589 139.525 241.685C139.511 241.679 139.5 241.668 139.493 241.654C139.487 241.64 139.486 241.625 139.489 241.61C139.493 241.595 139.502 241.582 139.515 241.573C139.527 241.564 139.542 241.56 139.557 241.561Z" fill="#263238"/>
<path d="M147.229 254.445C146.28 252.359 141.146 243.661 139.485 241.647C139.479 241.637 139.477 241.625 139.478 241.613C139.479 241.601 139.485 241.591 139.493 241.582C139.501 241.574 139.512 241.569 139.524 241.567C139.535 241.566 139.547 241.568 139.557 241.575C142.415 244.282 147 251.47 148.059 253.772C149.119 256.074 150.335 258.958 150.335 261.489C150.335 265.315 147.798 266.067 146.862 266.23C145.743 266.433 144.588 266.244 143.592 265.694C142.427 264.982 141.421 264.038 140.636 262.921C140.597 262.869 140.669 262.797 140.715 262.849C142.023 264.36 144.246 265.845 146.32 265.57C146.779 265.526 147.226 265.391 147.633 265.172C148.039 264.953 148.398 264.655 148.687 264.295C149.254 263.374 149.472 262.281 149.302 261.214C148.996 258.857 148.295 256.569 147.229 254.445Z" fill="#263238"/>
<path d="M87.5315 237.402L105.242 274.68C105.242 274.68 35.9701 290.232 29.9925 278.173C24.015 266.113 50.9205 218.92 63.0392 205.173C77.0936 189.242 78.8856 194.663 75.7922 208.783C72.5222 223.563 66.2895 244.936 66.2895 244.936L87.5315 237.402Z" fill="#E71C35"/>
<path opacity="0.1" d="M87.5315 237.402L105.242 274.68C105.242 274.68 35.9701 290.232 29.9925 278.173C24.015 266.113 50.9205 218.92 63.0392 205.173C77.0936 189.242 78.8856 194.663 75.7922 208.783C72.5222 223.563 66.2895 244.936 66.2895 244.936L87.5315 237.402Z" fill="black"/>
<path d="M45.2372 254.857C51.6268 250.42 58.6431 246.961 66.0541 244.596C68.1534 243.942 70.2724 243.321 72.3913 242.712C72.4567 242.712 72.4829 242.797 72.3913 242.817C68.6956 244.013 65.0728 245.424 61.5415 247.042C58.0142 248.611 54.5262 250.244 51.0775 251.94C49.1155 252.902 47.2058 253.955 45.283 254.981C45.2701 254.979 45.2581 254.973 45.2482 254.964C45.2382 254.955 45.2306 254.944 45.226 254.932C45.2215 254.919 45.2201 254.906 45.2221 254.893C45.224 254.88 45.2292 254.868 45.2372 254.857Z" fill="#263238"/>
<path d="M87.3481 237.304C87.0015 237.395 68.0551 243.654 67.4338 243.942C67.5123 243.654 70.9131 233.582 71.4232 232.104C71.469 231.961 71.5148 231.81 71.5671 231.666C71.9072 231.012 72.2603 230.358 72.5808 229.704C72.9863 228.848 73.3918 227.978 73.7907 227.088H73.7514L72.4434 229.619C72.2407 230.005 72.051 230.404 71.8614 230.803C72.1949 229.763 72.5154 228.717 72.8359 227.664C73.346 225.996 73.8038 224.309 74.255 222.621C74.255 222.563 74.1896 222.549 74.17 222.621C73.1629 225.558 72.0641 228.462 71.0504 231.398C70.0367 234.335 66.1389 245.132 66.1716 245.132C66.2043 245.132 87.0342 237.768 87.4397 237.605C87.4594 237.599 87.4778 237.589 87.4937 237.576C87.5097 237.563 87.5229 237.546 87.5326 237.528C87.5423 237.51 87.5484 237.49 87.5504 237.469C87.5524 237.449 87.5503 237.428 87.5443 237.408C87.5383 237.389 87.5285 237.37 87.5153 237.354C87.5022 237.338 87.4861 237.325 87.4679 237.315C87.4497 237.306 87.4297 237.3 87.4092 237.298C87.3886 237.296 87.3679 237.298 87.3481 237.304Z" fill="#263238"/>
<path d="M88.6238 261.6C86.6618 257.447 84.7587 253.268 82.6593 249.174C81.4625 246.852 80.2788 244.524 79.0623 242.215C79.0165 242.13 78.8596 242.215 78.8988 242.287C80.6908 246.538 82.4958 250.789 84.484 254.968C86.4721 259.147 88.408 263.274 90.4288 267.394C91.5799 269.736 92.8029 272.04 94.0978 274.307C94.0978 274.353 94.2024 274.307 94.1828 274.307C92.5347 269.978 90.5923 265.798 88.6238 261.6Z" fill="#263238"/>
<path d="M106.138 275.255C105.445 274.104 104.568 272.456 103.829 271.331C103.633 271.037 103.404 271.096 103.561 271.403C104.091 272.45 104.529 273.62 105.046 274.673C104.078 274.87 103.084 275.04 102.129 275.242C101.004 275.478 99.8856 275.72 98.7607 275.949C96.5546 276.385 94.3484 276.821 92.1423 277.257C87.6689 278.089 83.1781 278.822 78.6699 279.454C69.6383 280.777 60.5442 281.63 51.4242 282.011C48.8736 282.103 46.3165 282.149 43.7659 282.116C41.2499 282.122 38.7353 282 36.2318 281.75C36.1599 281.75 36.1468 281.861 36.2318 281.874C38.386 282.329 40.5728 282.613 42.7718 282.724C45.0804 282.835 47.3956 282.888 49.7108 282.861C54.2888 282.809 58.9125 282.508 63.4971 282.09C72.5877 281.253 81.6521 280.023 90.6381 278.434C93.1581 277.998 95.6717 277.525 98.1787 277.015C99.4474 276.76 100.71 276.505 101.972 276.223C103.234 275.942 106.256 275.452 106.138 275.255Z" fill="#263238"/>
<path d="M95.2944 206.258C90.7164 207.521 82.5218 200.752 79.1733 195.14C78.9444 194.754 79.3957 190.595 79.703 185.513C79.8796 182.433 79.9973 178.973 79.8796 175.847C79.8796 175.193 99.7808 179.915 99.7808 179.915C99.7808 179.915 98.0804 186.573 98.3159 192.053C98.3367 192.494 98.398 192.932 98.499 193.361C98.517 193.43 98.5301 193.5 98.5382 193.571C99.0287 195.997 99.722 205.035 95.2944 206.258Z" fill="#AD6359"/>
<path d="M81.0962 175.926C82.208 181.21 85.9881 193.93 96.5175 193.78C97.1928 193.773 97.8664 193.712 98.5318 193.597C98.5401 193.525 98.5401 193.453 98.5318 193.381C98.4348 192.951 98.3714 192.513 98.3422 192.073C98.1133 186.586 99.8071 179.922 99.8071 179.922C99.8071 179.922 85.4061 176.521 81.0962 175.926Z" fill="#263238"/>
<path d="M102.155 166.41C101.932 171.237 105.189 175.305 109.427 175.501C113.665 175.697 117.275 171.93 117.491 167.104C117.707 162.277 114.45 158.209 110.219 158.02C105.987 157.83 102.371 161.584 102.155 166.41Z" fill="#455A64"/>
<path d="M116.714 167.37C116.957 162.001 113.333 157.476 108.621 157.263C103.909 157.049 99.8916 161.229 99.6487 166.598C99.4059 171.967 103.029 176.493 107.741 176.706C112.454 176.919 116.471 172.739 116.714 167.37Z" fill="#C7C7C7"/>
<path d="M82.4758 150.806C79.0489 157.267 78.8331 177.81 82.8617 183.185C88.7019 190.968 100.18 193.826 107.256 186.39C114.143 179.157 113.946 152.382 109.27 147.3C102.397 139.799 87.5378 141.264 82.4758 150.806Z" fill="#AD6359"/>
<path d="M99.5583 166.685C99.5583 166.633 99.4471 166.757 99.4537 166.816C99.5256 168.196 99.3817 169.791 98.1457 170.275C98.1064 170.275 98.113 170.36 98.1457 170.354C99.676 170.105 99.8461 167.986 99.5583 166.685Z" fill="#263238"/>
<path d="M98.2896 165.272C96.0595 165.155 95.9875 169.621 98.0476 169.726C100.108 169.831 100.16 165.37 98.2896 165.272Z" fill="#263238"/>
<path d="M107.302 166.855C107.302 166.803 107.407 166.927 107.407 166.979C107.341 168.366 107.498 169.961 108.715 170.439C108.754 170.439 108.715 170.524 108.715 170.517C107.204 170.275 107.014 168.156 107.302 166.855Z" fill="#263238"/>
<path d="M108.564 165.462C110.788 165.325 110.892 169.792 108.826 169.916C106.759 170.04 106.694 165.541 108.564 165.462Z" fill="#263238"/>
<path d="M96.2885 161.701C96.9425 161.669 97.4853 161.531 98.1066 161.44C98.7621 161.427 99.3947 161.197 99.9051 160.786C100.042 160.628 100.123 160.43 100.135 160.221C100.146 160.013 100.089 159.807 99.9705 159.635C99.6846 159.334 99.3235 159.114 98.9246 159C98.5257 158.885 98.1034 158.878 97.7012 158.981C96.8489 159.048 96.053 159.433 95.471 160.06C95.3491 160.21 95.2729 160.392 95.2517 160.584C95.2305 160.776 95.265 160.971 95.3512 161.144C95.4374 161.317 95.5717 161.461 95.7379 161.56C95.9041 161.659 96.0952 161.708 96.2885 161.701Z" fill="#263238"/>
<path d="M110.663 162.192C110.066 162.061 109.477 161.897 108.897 161.701C108.254 161.624 107.654 161.337 107.19 160.884C107.073 160.711 107.017 160.504 107.03 160.296C107.043 160.088 107.125 159.89 107.262 159.733C107.582 159.465 107.968 159.287 108.379 159.217C108.791 159.146 109.213 159.187 109.604 159.334C110.44 159.51 111.181 159.99 111.683 160.681C111.781 160.845 111.83 161.034 111.825 161.225C111.82 161.416 111.76 161.602 111.653 161.76C111.546 161.919 111.396 162.044 111.221 162.12C111.046 162.196 110.852 162.221 110.663 162.192Z" fill="#263238"/>
<path d="M97.0343 179.51C97.3613 179.837 97.6883 180.288 98.1853 180.34C98.6996 180.336 99.2074 180.224 99.6765 180.013C99.6858 180.011 99.6956 180.012 99.7046 180.015C99.7137 180.018 99.7217 180.024 99.7278 180.031C99.7338 180.039 99.7378 180.048 99.7391 180.057C99.7404 180.067 99.7391 180.077 99.7353 180.085C99.5347 180.355 99.2644 180.566 98.9532 180.694C98.6421 180.821 98.302 180.862 97.9695 180.811C97.6884 180.733 97.4366 180.573 97.2459 180.352C97.0551 180.131 96.9337 179.858 96.8969 179.569C96.8773 179.49 96.982 179.457 97.0343 179.51Z" fill="#263238"/>
<path d="M98.5577 175.39C98.8992 175.943 99.3516 176.419 99.8862 176.788C100.421 177.157 101.026 177.411 101.664 177.535C102.22 177.654 102.791 177.691 103.358 177.646C103.468 177.642 103.577 177.631 103.685 177.613L103.986 177.568C104.06 177.555 104.128 177.52 104.18 177.465C104.232 177.411 104.265 177.341 104.274 177.267C104.277 177.219 104.277 177.171 104.274 177.123V176.999C104.319 175.933 104.274 174.311 104.274 174.311C104.66 174.513 106.635 175.442 106.608 174.886C106.412 170.269 106.19 165.142 105.019 160.596C105.013 160.567 104.996 160.542 104.973 160.523C104.95 160.505 104.921 160.495 104.892 160.495C104.862 160.495 104.833 160.505 104.81 160.523C104.787 160.542 104.771 160.567 104.764 160.596C104.764 165.037 105.575 169.445 105.66 173.905C104.96 173.567 104.216 173.327 103.45 173.192C103.299 173.238 103.652 176.325 103.594 176.802C103.595 176.82 103.595 176.837 103.594 176.855C101.795 177.051 100.454 176.489 98.7408 175.259C98.5839 175.187 98.4727 175.272 98.5577 175.39Z" fill="#263238"/>
<path d="M102.737 177.09C102.142 177.843 101.363 178.429 100.474 178.791C99.9837 178.972 99.4491 178.997 98.9438 178.863C97.845 178.549 97.832 177.555 98.0478 176.672C98.1683 176.217 98.3417 175.778 98.5644 175.364C99.7359 176.369 101.198 176.974 102.737 177.09Z" fill="#263238"/>
<path d="M100.474 178.79C99.9837 178.972 99.4491 178.997 98.9438 178.862C97.845 178.548 97.832 177.554 98.0478 176.671C99.2315 176.815 100.389 177.639 100.474 178.79Z" fill="#FF98B9"/>
<path opacity="0.2" d="M79.9058 165.311C81.253 165.096 84.4838 160.537 85.8506 158.726C87.2175 156.914 88.0088 147.202 88.1331 144.992C85.7347 146.348 83.7707 148.357 82.4694 150.786C80.9391 153.69 80.0562 159.399 79.9058 165.311Z" fill="#263238"/>
<path d="M104.843 153.036C104.044 153.912 103.035 154.569 101.911 154.946C100.787 155.322 99.5856 155.406 98.4204 155.187C97.2314 154.969 96.1181 154.449 95.1863 153.679C94.2546 152.909 93.5353 151.913 93.0969 150.786C93.0969 150.714 92.9661 150.753 92.9922 150.819C93.3458 152.046 94.028 153.153 94.9651 154.021C95.9021 154.889 97.0585 155.485 98.3093 155.743C99.552 155.931 100.822 155.788 101.992 155.329C103.162 154.87 104.19 154.11 104.974 153.127C104.978 153.111 104.977 153.093 104.971 153.076C104.965 153.06 104.954 153.046 104.94 153.036C104.926 153.026 104.909 153.021 104.891 153.021C104.874 153.021 104.857 153.026 104.843 153.036Z" fill="#263238"/>
<path d="M98.1983 135.627C94.1632 135.587 90.3961 137.7 88.8331 140.394C87.9649 141.93 87.6422 143.714 87.9175 145.456C87.9175 145.528 88.0679 145.515 88.0613 145.456C88.0274 143.921 88.4072 142.404 89.1609 141.066C89.9146 139.728 91.0144 138.617 92.3451 137.85C93.802 136.957 95.4463 136.415 97.1485 136.265C98.8508 136.115 100.565 136.362 102.155 136.987C103.705 137.56 105 138.669 105.804 140.113C105.883 140.263 106.184 140.178 106.125 140.028C105.105 137.464 101.841 135.659 98.1983 135.627Z" fill="#263238"/>
<path d="M121.317 145.103C120.719 143.093 119.431 141.359 117.681 140.205C115.255 138.596 112.449 138.733 109.676 138.929C109.66 138.929 109.645 138.935 109.634 138.946C109.623 138.957 109.617 138.972 109.617 138.988C109.617 139.004 109.623 139.019 109.634 139.03C109.645 139.041 109.66 139.047 109.676 139.047C112.044 138.89 114.457 138.864 116.589 140.048C118.363 141.008 119.75 142.554 120.513 144.423C121.239 146.339 121.248 148.453 120.539 150.376C119.83 152.299 118.45 153.9 116.654 154.887C115.607 155.428 114.459 155.749 113.283 155.832C112.107 155.914 110.926 155.755 109.813 155.364C109.722 155.332 109.656 155.456 109.741 155.495C111.244 156.087 112.883 156.25 114.473 155.964C116.063 155.678 117.542 154.956 118.745 153.877C119.947 152.799 120.826 151.407 121.283 149.857C121.74 148.308 121.756 146.661 121.33 145.103H121.317Z" fill="#263238"/>
<path d="M81.0178 154.762C81.0178 154.762 77.447 147.418 80.7955 143.363C82.6921 141.068 88.6958 141.591 88.6958 141.591C88.6958 141.591 90.7559 138.21 95.7786 137.248C100.801 136.287 106.727 139.433 106.727 139.433C106.727 139.433 111.605 136.876 115.987 139.596C122.102 143.389 120.977 152.866 114.581 155.691C110.095 157.653 104.248 153.559 104.248 153.559C103.666 153.618 97.636 156.953 93.3719 151.532C93.3719 151.532 89.631 154.619 86.4591 152.245C85.9195 153.171 85.1082 153.91 84.1349 154.36C83.1617 154.811 82.0735 154.951 81.0178 154.762Z" fill="#263238"/>
<path d="M83.5877 167.797C83.5877 167.797 80.1934 160.603 76.9953 161.675C73.7973 162.748 75.5696 172.702 78.7742 174.572C79.1696 174.841 79.6152 175.026 80.0841 175.118C80.5531 175.21 81.0357 175.205 81.503 175.106C81.9704 175.006 82.4127 174.813 82.8036 174.538C83.1944 174.264 83.5256 173.912 83.7773 173.506L83.5877 167.797Z" fill="#AD6359"/>
<path d="M77.571 164.507C77.5187 164.507 77.4925 164.573 77.571 164.599C79.8077 165.985 80.6906 168.438 81.1746 170.903C80.6187 169.89 79.7227 169.236 78.3885 169.877C78.3747 169.886 78.3641 169.899 78.3583 169.914C78.3525 169.93 78.3517 169.947 78.356 169.963C78.3604 169.979 78.3697 169.993 78.3825 170.003C78.3954 170.014 78.4112 170.02 78.4278 170.021C78.8744 169.96 79.3288 170.039 79.729 170.246C80.1293 170.453 80.456 170.779 80.6644 171.178C81.0034 171.85 81.2708 172.556 81.4623 173.284C81.5408 173.519 81.9463 173.467 81.907 173.206C81.9101 173.186 81.9101 173.166 81.907 173.147C82.4564 170.092 80.8149 165.39 77.571 164.507Z" fill="#263238"/>
<path d="M90.9844 182.283L84.5425 179.503L79.3628 173.055L80.3569 172.25L85.3404 178.457L91.4945 181.112L90.9844 182.283Z" fill="#C7C7C7"/>
<path d="M90.2978 181.256C90.9518 179.379 96.1838 180.073 95.2355 182.911C94.2872 185.749 89.6634 183.12 90.2978 181.256Z" fill="#37474F"/>
<path d="M76.8972 161.479C76.8972 161.479 76.1974 150.93 79.2843 145.129C82.7243 138.648 96.9815 132.481 106.752 139.446C106.752 139.446 90.8797 136.608 83.483 145.594C80.3699 149.374 80.4484 161.773 80.4484 161.773L76.8972 161.479Z" fill="#C7C7C7"/>
<path d="M78.337 176.63C83.0539 176.583 86.8345 172.188 86.781 166.814C86.7275 161.44 82.8603 157.121 78.1434 157.168C73.4264 157.215 69.6459 161.61 69.6994 166.984C69.7528 172.358 73.62 176.677 78.337 176.63Z" fill="#C7C7C7"/>
<path d="M84.2878 166.535C84.3336 171.368 80.9393 175.318 76.7014 175.357C72.4635 175.396 68.9842 171.518 68.9384 166.685C68.8927 161.852 72.2869 157.902 76.5248 157.863C80.7628 157.823 84.242 161.702 84.2878 166.535Z" fill="#455A64"/>
<path d="M98.4597 193.244L93.849 204.885L79.3433 190.249L75.2754 194.984C75.2754 194.984 89.4999 218.272 89.5849 217.22L94.3264 207.181L101.272 214.12L100.618 196.632L98.4597 193.244Z" fill="#EBEBEB"/>
<path d="M101.442 205.454C101.239 202.57 101.121 199.66 100.788 196.789C100.788 196.691 100.618 196.645 100.592 196.789C100.029 199.581 100.86 210.601 100.86 213.25H100.827C100.539 212.949 94.3917 207.148 94.3329 207.24C93.3061 208.836 89.8203 216.141 89.5848 216.808C87.3351 213.106 77.8128 198.528 75.1314 195.03C75.1184 195.007 75.097 194.991 75.0718 194.984C75.0467 194.977 75.0199 194.981 74.9973 194.994C74.9748 195.007 74.9583 195.028 74.9516 195.053C74.9448 195.078 74.9484 195.105 74.9614 195.128C76.9234 199.052 89.284 218.286 89.454 218.233C91.289 214.785 92.9458 211.244 94.4179 207.626C95.4577 208.888 101.658 215.441 101.677 215.009C101.768 211.822 101.689 208.633 101.442 205.454Z" fill="#263238"/>
<path d="M256.917 162.637H236.689C234.728 162.635 232.848 161.855 231.461 160.468C230.074 159.082 229.294 157.201 229.292 155.24C229.292 153.278 230.072 151.397 231.459 150.01C232.846 148.623 234.727 147.843 236.689 147.843H256.917C258.879 147.843 260.761 148.623 262.148 150.01C263.535 151.397 264.314 153.278 264.314 155.24C264.314 156.211 264.123 157.173 263.751 158.071C263.379 158.968 262.835 159.783 262.148 160.47C261.461 161.157 260.645 161.702 259.748 162.074C258.851 162.445 257.889 162.637 256.917 162.637Z" fill="#455A64"/>
<path d="M241.11 155.109C241.125 154.875 241.201 154.649 241.333 154.455L241.516 154.187L241.902 153.801L242.353 153.474C242.974 153.079 243.668 152.81 244.393 152.683C246.066 152.349 247.789 152.349 249.462 152.683C250.179 152.805 250.863 153.07 251.476 153.461C251.633 153.566 251.79 153.683 251.941 153.795L252.32 154.174C252.419 154.317 252.511 154.466 252.595 154.619C252.659 154.776 252.711 154.938 252.752 155.103H249.436C249.41 155.106 249.384 155.101 249.361 155.088C249.339 155.075 249.321 155.055 249.311 155.031C249.221 154.855 249.085 154.706 248.919 154.599C248.752 154.492 248.561 154.431 248.363 154.422C247.398 154.36 246.431 154.36 245.466 154.422C245.27 154.431 245.079 154.491 244.914 154.596C244.749 154.702 244.614 154.85 244.524 155.024C244.524 155.07 244.478 155.103 244.413 155.103H241.11V155.109Z" fill="white"/>
<path d="M241.11 156.96V155.75H244.38C244.38 155.822 244.38 155.9 244.38 155.985V156.96C244.389 157.017 244.384 157.075 244.367 157.13C244.349 157.185 244.318 157.235 244.277 157.276C244.237 157.316 244.187 157.347 244.132 157.365C244.077 157.383 244.019 157.387 243.962 157.378H241.522C241.465 157.388 241.407 157.383 241.353 157.365C241.298 157.348 241.248 157.317 241.208 157.276C241.167 157.235 241.138 157.185 241.121 157.13C241.104 157.075 241.1 157.017 241.11 156.96Z" fill="white"/>
<path d="M249.462 156.999C249.462 156.587 249.462 156.175 249.462 155.77H252.699V155.841C252.699 156.221 252.699 156.607 252.699 156.986C252.705 157.041 252.699 157.096 252.681 157.148C252.663 157.2 252.633 157.248 252.594 157.287C252.555 157.326 252.508 157.355 252.456 157.373C252.404 157.392 252.348 157.398 252.294 157.391H249.828C249.777 157.394 249.726 157.385 249.679 157.366C249.632 157.346 249.589 157.317 249.554 157.28C249.52 157.242 249.493 157.198 249.477 157.149C249.461 157.101 249.456 157.05 249.462 156.999Z" fill="white"/>
<path d="M173.925 287.106H169.438V290.036H173.925V287.106Z" fill="#455A64"/>
<path d="M179.739 286.91H175.252V289.84H179.739V286.91Z" fill="#455A64"/>
<path d="M185.56 286.714H181.073V289.644H185.56V286.714Z" fill="#455A64"/>
<path d="M191.38 286.524H186.894V289.454H191.38V286.524Z" fill="#455A64"/>
<path d="M197.201 286.328H192.714V289.258H197.201V286.328Z" fill="#455A64"/>
<path d="M203.021 286.138H198.535V289.068H203.021V286.138Z" fill="#455A64"/>
<path d="M208.842 285.942H204.355V288.872H208.842V285.942Z" fill="#455A64"/>
<path d="M214.663 285.746H210.176V288.676H214.663V285.746Z" fill="#455A64"/>
<path d="M220.477 285.556H215.99V288.486H220.477V285.556Z" fill="#455A64"/>
<path d="M221.582 291.717H168.333V288.153L221.582 286.668V291.717Z" fill="#37474F"/>
<path d="M273.548 277.662H185.651L199.627 212.223H287.524L273.548 277.662Z" fill="#455A64"/>
<path d="M276.799 277.662H188.901L202.877 212.223H290.775L276.799 277.662Z" fill="#37474F"/>
<path d="M245.41 244.826C247.795 242.622 248.202 239.184 246.319 237.147C244.437 235.11 240.977 235.245 238.593 237.448C236.208 239.652 235.801 243.09 237.683 245.127C239.566 247.165 243.025 247.03 245.41 244.826Z" fill="#263238"/>
<path d="M251.94 294.752H208.711V291.39L251.94 289.997V294.752Z" fill="#455A64"/>
<path d="M263.693 294.745H240.483L226.5 258.075H249.71L263.693 294.745Z" fill="#455A64"/>
<path d="M267.512 294.745H244.302L230.326 258.075H253.536L267.512 294.745Z" fill="#263238"/>
<path d="M166.692 295.641H122.122C118.322 295.641 123.822 284.811 137.706 280.658C151.591 276.505 171.073 291.579 166.692 295.641Z" fill="#37474F"/>
<path d="M149.204 295.641C149.239 294.407 149.444 293.183 149.812 292.005C150.171 290.816 150.674 289.677 151.309 288.61C151.949 287.539 152.747 286.571 153.677 285.739C154.596 284.905 155.657 284.24 156.81 283.777C156.332 284.17 155.789 284.431 155.351 284.87L154.697 285.452L154.043 286.106C153.217 286.968 152.493 287.922 151.885 288.95C151.268 289.979 150.738 291.057 150.302 292.175C149.859 293.304 149.492 294.462 149.204 295.641Z" fill="#263238"/>
<path d="M154.481 285.334C157.129 286.21 159.634 287.468 161.917 289.068C163.071 289.866 164.116 290.811 165.024 291.881C165.47 292.427 165.854 293.022 166.168 293.653C166.479 294.284 166.657 294.971 166.692 295.674C166.536 295.008 166.263 294.375 165.887 293.803C165.531 293.23 165.115 292.698 164.645 292.214C163.692 291.248 162.652 290.373 161.538 289.598C160.433 288.8 159.262 288.087 158.092 287.381C157.503 287.028 156.901 286.688 156.3 286.361C155.698 286.034 155.09 285.668 154.481 285.334Z" fill="#263238"/>
<path d="M169.883 147.078C169.498 150.726 168.108 154.195 165.867 157.098C163.626 160.002 160.622 162.226 157.191 163.522C153.76 164.818 150.036 165.135 146.435 164.439C142.834 163.742 139.497 162.059 136.797 159.576L126.876 161.054L131.833 152.493C130.595 149.477 130.127 146.2 130.473 142.958C130.727 140.358 131.493 137.835 132.726 135.532C133.96 133.23 135.636 131.194 137.66 129.543C139.683 127.891 142.013 126.656 144.516 125.909C147.019 125.161 149.645 124.916 152.242 125.188C154.84 125.46 157.359 126.243 159.652 127.492C161.946 128.741 163.971 130.431 165.608 132.466C167.246 134.501 168.465 136.839 169.196 139.347C169.926 141.855 170.153 144.482 169.863 147.078H169.883Z" fill="white"/>
<path d="M169.883 147.078C169.503 150.729 168.12 154.203 165.887 157.117C165.333 157.842 164.734 158.532 164.095 159.184C163.433 159.813 162.734 160.402 162.003 160.949C160.545 162.059 158.938 162.955 157.228 163.611C155.519 164.281 153.725 164.708 151.898 164.88C150.983 164.966 150.063 164.984 149.145 164.932C148.225 164.911 147.309 164.817 146.405 164.651C142.749 163.98 139.352 162.304 136.595 159.811L136.83 159.883L126.935 161.407L126.222 161.538L126.582 160.884L131.513 152.297V152.637C130.356 149.824 129.856 146.784 130.05 143.749C130.245 140.713 131.13 137.762 132.637 135.12C134.144 132.478 136.234 130.214 138.747 128.502C141.261 126.789 144.132 125.672 147.143 125.236C150.153 124.8 153.223 125.057 156.119 125.986C159.016 126.916 161.662 128.493 163.856 130.599C166.051 132.705 167.736 135.284 168.784 138.14C169.832 140.995 170.214 144.052 169.903 147.078H169.883ZM169.883 147.078C170.194 144.098 169.817 141.086 168.783 138.273C167.749 135.461 166.084 132.922 163.916 130.853C161.748 128.784 159.136 127.239 156.278 126.336C153.421 125.434 150.394 125.198 147.431 125.646C144.493 126.085 141.695 127.19 139.25 128.877C136.832 130.579 134.811 132.783 133.325 135.339C131.862 137.908 130.999 140.774 130.8 143.723C130.617 146.678 131.098 149.637 132.206 152.382L132.278 152.559L132.18 152.716L127.197 161.263L126.843 160.74L136.758 159.354H136.895L136.994 159.445C139.64 161.922 142.923 163.614 146.477 164.331C147.363 164.509 148.261 164.618 149.164 164.658C150.066 164.72 150.971 164.72 151.872 164.658C153.682 164.519 155.463 164.128 157.163 163.493C158.872 162.876 160.481 162.01 161.937 160.923C162.667 160.381 163.366 159.798 164.03 159.177C164.671 158.532 165.271 157.849 165.828 157.13C168.085 154.22 169.489 150.74 169.883 147.078Z" fill="#263238"/>
<path d="M161.231 145.62C161.232 146.095 161.093 146.559 160.83 146.955C160.567 147.351 160.192 147.659 159.754 147.842C159.315 148.025 158.833 148.073 158.367 147.981C157.901 147.889 157.472 147.661 157.136 147.326C156.8 146.99 156.57 146.563 156.477 146.097C156.384 145.631 156.431 145.148 156.613 144.709C156.794 144.27 157.102 143.895 157.497 143.631C157.892 143.367 158.356 143.226 158.831 143.226C159.146 143.225 159.458 143.287 159.749 143.406C160.04 143.526 160.305 143.702 160.528 143.925C160.751 144.147 160.927 144.411 161.048 144.702C161.169 144.993 161.231 145.305 161.231 145.62Z" fill="#263238"/>
<path d="M152.637 145.62C152.639 146.095 152.499 146.56 152.235 146.956C151.972 147.351 151.597 147.66 151.159 147.842C150.72 148.025 150.237 148.073 149.77 147.981C149.304 147.888 148.876 147.66 148.54 147.323C148.204 146.987 147.975 146.559 147.883 146.093C147.79 145.627 147.838 145.144 148.021 144.705C148.203 144.266 148.512 143.891 148.908 143.628C149.303 143.365 149.768 143.225 150.244 143.226C150.878 143.226 151.487 143.478 151.936 143.927C152.385 144.376 152.637 144.985 152.637 145.62Z" fill="#263238"/>
<path d="M144.05 145.62C144.052 146.095 143.912 146.559 143.649 146.955C143.386 147.351 143.012 147.659 142.573 147.842C142.135 148.025 141.652 148.073 141.186 147.981C140.72 147.889 140.292 147.661 139.955 147.326C139.619 146.99 139.39 146.563 139.297 146.097C139.203 145.631 139.251 145.148 139.432 144.709C139.614 144.27 139.921 143.895 140.316 143.631C140.711 143.367 141.175 143.226 141.65 143.226C142.286 143.226 142.895 143.478 143.345 143.927C143.795 144.375 144.049 144.984 144.05 145.62Z" fill="#263238"/>
<path d="M178.274 44.387C178.659 48.0345 180.049 51.5034 182.289 54.4072C184.53 57.311 187.533 59.5355 190.963 60.8328C194.394 62.13 198.118 62.4491 201.719 61.7543C205.32 61.0596 208.658 59.3783 211.36 56.898L221.261 58.3499L216.31 49.789C217.446 47.0013 217.931 43.9915 217.728 40.9882C217.526 37.985 216.642 35.0674 215.143 32.4572C213.644 29.847 211.569 27.6128 209.077 25.9246C206.585 24.2363 203.741 23.1383 200.761 22.714C197.781 22.2898 194.744 22.5504 191.88 23.4762C189.015 24.4019 186.4 25.9684 184.232 28.0566C182.064 30.1447 180.401 32.6996 179.368 35.5271C178.336 38.3545 177.962 41.3801 178.274 44.3739V44.387Z" fill="white"/>
<path d="M184.199 28.0305C186.356 25.9035 188.973 24.3008 191.847 23.346C194.722 22.3911 197.778 22.1099 200.778 22.5238C203.8 22.9223 206.69 24.0074 209.228 25.6957C213.072 28.2617 215.911 32.0777 217.264 36.4972C218.616 40.9167 218.4 45.6679 216.651 49.946V49.606L221.569 58.2061L221.929 58.8601L221.216 58.7489L211.314 57.2316L211.55 57.1597C208.792 59.6526 205.396 61.3284 201.74 61.9993C200.835 62.165 199.919 62.2591 198.999 62.2805C198.084 62.3284 197.166 62.311 196.252 62.2282C192.585 61.8784 189.085 60.5203 186.142 58.3042C185.41 57.757 184.711 57.1674 184.049 56.5384C183.412 55.8851 182.813 55.1951 182.257 54.4717C179.292 50.5983 177.851 45.7722 178.207 40.9075C178.562 36.0428 180.69 31.4774 184.186 28.0763L184.199 28.0305ZM182.329 54.3802C182.886 55.0965 183.487 55.7779 184.127 56.4206C184.788 57.0452 185.487 57.6284 186.22 58.1668C187.676 59.2592 189.288 60.1277 191.001 60.7436C192.7 61.3746 194.478 61.7664 196.285 61.9077C197.189 61.9698 198.096 61.9698 198.999 61.9077C199.9 61.8677 200.797 61.7584 201.681 61.5807C205.234 60.8642 208.518 59.1726 211.164 56.6953L211.262 56.6038H211.399L221.314 57.9902L220.961 58.5134L215.977 49.9657L215.879 49.8022L215.951 49.6256C217.061 46.8909 217.537 43.9403 217.344 40.9952C217.15 38.0501 216.291 35.1873 214.833 32.6216C213.348 30.0644 211.327 27.8598 208.907 26.1601C206.464 24.4738 203.668 23.3687 200.732 22.9293C196.852 22.3302 192.881 22.9115 189.335 24.5977C185.789 26.284 182.832 28.9974 180.848 32.3855C178.864 35.7736 177.944 39.6801 178.208 43.5976C178.472 47.5151 179.908 51.2628 182.329 54.354V54.3802Z" fill="#263238"/>
<path d="M199.732 44.7468V47.2189C199.737 47.4652 199.693 47.71 199.601 47.9385C199.509 48.1671 199.372 48.3747 199.198 48.5488C199.024 48.723 198.816 48.8601 198.588 48.9519C198.359 49.0436 198.114 49.0882 197.868 49.0828C197.374 49.0811 196.901 48.8842 196.552 48.535C196.203 48.1858 196.006 47.7127 196.004 47.2189V43.2949C196.004 43.2557 196.043 43.2557 196.043 43.2165C196.043 43.1772 196.004 43.1772 196.004 43.1445C196.017 42.6544 196.218 42.1879 196.565 41.8412C196.911 41.4944 197.378 41.2938 197.868 41.2806C198.454 41.3266 199.044 41.2509 199.599 41.0581C200.155 40.8654 200.665 40.5598 201.097 40.1605C201.528 39.7613 201.873 39.2771 202.109 38.7383C202.344 38.1994 202.466 37.6177 202.466 37.0296C202.466 36.4415 202.344 35.8598 202.109 35.321C201.873 34.7822 201.528 34.2979 201.097 33.8987C200.665 33.4994 200.155 33.1938 199.599 33.0011C199.044 32.8083 198.454 32.7326 197.868 32.7786C197.129 32.7756 196.403 32.9676 195.762 33.335C195.122 33.7025 194.589 34.2324 194.219 34.8714C194.092 35.0878 193.922 35.2767 193.721 35.427C193.52 35.5773 193.291 35.6861 193.048 35.747C192.804 35.8079 192.551 35.8197 192.303 35.7816C192.055 35.7436 191.817 35.6565 191.603 35.5254C191.392 35.4013 191.208 35.2368 191.061 35.0412C190.913 34.8457 190.806 34.623 190.746 34.386C190.685 34.149 190.672 33.9023 190.706 33.6602C190.741 33.418 190.824 33.1851 190.949 32.9748C191.61 31.8264 192.547 30.8606 193.675 30.1643C194.803 29.4681 196.086 29.0633 197.41 28.9864C198.733 28.9095 200.054 29.1628 201.255 29.7237C202.456 30.2846 203.499 31.1353 204.289 32.1994C205.079 33.2634 205.593 34.5073 205.783 35.819C205.973 37.1307 205.834 38.4691 205.378 39.7137C204.922 40.9582 204.163 42.0699 203.171 42.9485C202.179 43.8271 200.983 44.4451 199.693 44.7468H199.732ZM199.732 53.0722V53.7262C199.738 53.9727 199.694 54.2179 199.603 54.4469C199.511 54.6759 199.374 54.8839 199.2 55.0582C199.026 55.2326 198.818 55.3696 198.589 55.4611C198.36 55.5525 198.115 55.5964 197.868 55.5901C197.374 55.5901 196.9 55.3938 196.55 55.0442C196.201 54.6947 196.004 54.2206 196.004 53.7262V53.0722C196.011 52.58 196.209 52.1098 196.558 51.7617C196.906 51.4137 197.376 51.2151 197.868 51.2083C198.114 51.2057 198.357 51.2521 198.584 51.3449C198.812 51.4376 199.018 51.5748 199.192 51.7484C199.366 51.922 199.503 52.1285 199.595 52.3559C199.688 52.5832 199.735 52.8267 199.732 53.0722Z" fill="#E71C35"/>
</svg>
