<svg width="62" height="62" viewBox="0 0 62 62" fill="none" xmlns="http://www.w3.org/2000/svg">
<path d="M12.9019 17.2576H14.3422C15.1278 17.2576 15.3897 17.5196 15.3897 18.3052V37.2936H21.021V27.603H29.1401V23.0197H21.021V17.2576H30.8406V12.5435H12.9019V17.2576Z" fill="#E71C35"/>
<path d="M34.0218 37.1084C34.0218 32.3942 37.1648 29.7752 41.2253 29.7752C43.9752 29.7752 46.2014 30.5607 48.5585 32.1322V27.1558C46.1381 25.5982 43.3165 24.7791 40.4383 24.7987C33.1051 24.7987 28.2598 29.906 28.2598 37.2392C28.2598 44.5724 33.3671 49.5489 40.8311 49.5489C43.7309 49.5876 46.57 48.7175 48.9502 47.0606V41.9533C46.3312 43.6556 43.8429 44.4416 41.2239 44.4416C37.1645 44.3108 34.0218 41.6917 34.0218 37.1084Z" fill="#E71C35"/>
</svg>
