<svg width="179" height="68" viewBox="0 0 179 68" fill="none" xmlns="http://www.w3.org/2000/svg">
<path d="M101.258 9.90741C103.505 9.90741 105.003 8.55621 105.003 6.45648C105.003 4.50507 103.505 3.15387 101.258 3.15387C99.0115 3.15387 97.5136 4.50343 97.5136 6.45484C97.6633 8.70657 99.1612 9.90741 101.258 9.90741Z" fill="#BE0F2C"/>
<path d="M51.9775 13.8107C51.6778 12.4595 50.4796 11.7089 49.1313 11.7089H46.8844V31.9744H53.0257V20.8662C53.0257 17.7139 55.1229 16.3627 57.9687 16.3627H59.317V11.559H57.8191C55.1242 11.559 53.0257 12.4595 51.9775 13.8107Z" fill="#BE0F2C"/>
<path d="M114.74 20.8662C114.74 17.7139 116.837 16.3627 119.683 16.3627H121.031V11.559H119.533C116.837 11.559 114.89 12.4595 113.691 13.8107C113.391 12.4595 112.193 11.7089 110.845 11.7089H108.598V31.9744H114.74V20.8662Z" fill="#BE0F2C"/>
<path d="M34.4519 11.1087C28.4603 11.1087 24.4158 15.4634 24.4158 21.7667C24.4158 27.7713 28.6099 32.2748 35.0508 32.2748C38.0466 32.2748 40.5932 31.6741 42.3887 30.3234V25.5196C40.2935 26.72 38.1967 27.1719 35.6481 27.1719C32.8019 27.1719 30.8547 25.6708 30.2558 23.1187H43.1397V20.7162C43.1397 15.0115 39.8442 11.1087 34.4519 11.1087ZM30.4075 18.9144C31.0068 16.9629 32.3547 15.7621 34.4519 15.7621C36.2495 15.7621 37.4477 16.9629 37.7474 18.9144H30.4075Z" fill="#BE0F2C"/>
<path d="M67.1062 13.8107C66.8065 12.4595 65.6083 11.7089 64.26 11.7089H62.0132V31.9744H68.1544V20.8662C68.1544 17.7139 70.2516 16.3627 73.0974 16.3627H74.4457V11.559H72.9478C70.2529 11.559 68.3044 12.4595 67.1062 13.8107Z" fill="#BE0F2C"/>
<path d="M102.007 11.7089H98.4122V31.9745H104.553V14.4109C104.704 12.7598 103.655 11.7089 102.007 11.7089Z" fill="#BE0F2C"/>
<path d="M3.29547 9.45714H4.94301C5.84159 9.45714 6.14125 9.75745 6.14125 10.658V32.4251H12.5826V21.3164H21.8697V16.0624H12.5826V9.45714H23.8148V4.05316H3.29547V9.45714Z" fill="#BE0F2C"/>
<path d="M138.856 26.1198V20.1152C138.856 14.4109 136.01 11.4086 129.569 11.4086H123.577V16.2123H128.818C131.514 16.2123 132.862 17.1129 133.012 19.5149H131.215C125.075 19.5149 121.48 21.316 121.48 26.1198C121.48 29.8726 124.027 32.2743 128.071 32.2743C130.618 32.2743 132.116 31.2234 133.463 29.7223C134.063 31.0735 135.111 31.8241 136.459 31.8241H141.253V27.3206H140.054C139.893 27.3354 139.731 27.3146 139.579 27.2595C139.427 27.2044 139.289 27.1164 139.174 27.0018C139.06 26.8872 138.972 26.7488 138.917 26.5963C138.862 26.4439 138.841 26.2812 138.856 26.1198ZM129.119 27.7713C128.854 27.7818 128.588 27.7397 128.339 27.6472C128.09 27.5547 127.861 27.4138 127.666 27.2324C127.471 27.0511 127.314 26.8329 127.203 26.5905C127.093 26.3481 127.031 26.0862 127.022 25.8199C127.022 24.0184 128.22 23.4182 131.067 23.4182H132.864C132.864 25.9698 131.366 27.7713 129.119 27.7713Z" fill="#BE0F2C"/>
<path d="M86.2793 32.2747C89.2751 32.2747 91.8217 31.6741 93.7689 30.3233V25.5196C91.6716 26.7204 89.4235 27.1707 86.8787 27.1707C84.0325 27.1707 82.0853 25.6695 81.636 23.1175H94.3682C94.5597 22.2801 94.6601 21.4245 94.6679 20.5654C94.6675 14.8611 91.3716 10.9583 85.83 10.9583C79.8384 10.9583 75.794 15.313 75.794 21.6163C75.794 27.7713 79.8384 32.2747 86.2793 32.2747ZM85.68 15.7621C87.4776 15.7621 88.8254 16.9629 88.9755 18.9143H81.7856C82.3849 16.9629 83.5828 15.7621 85.68 15.7621Z" fill="#BE0F2C"/>
<path d="M82.3849 50.2886C82.3849 44.8846 85.9801 41.8823 90.6247 41.8823C93.7701 41.8823 96.3166 42.7828 99.0128 44.5843V38.8796C96.2442 37.094 93.0167 36.1552 89.7244 36.1776C81.3363 36.1776 75.794 42.0322 75.794 50.4385C75.794 58.8448 81.636 64.5495 90.1737 64.5495C93.4907 64.5939 96.7383 63.5965 99.4608 61.6971V55.8425C96.465 57.7939 93.6188 58.6948 90.623 58.6948C85.9797 58.5449 82.3849 55.5426 82.3849 50.2886Z" fill="#BE0F2C"/>
<path d="M149.341 34.6765H143.05V52.8402C143.05 58.2442 146.494 60.346 151.139 60.346H154.135V55.3923H151.888C150.24 55.3923 149.192 54.4917 149.192 52.39V44.7342H155.184V39.9305H149.191L149.341 34.6765H149.341Z" fill="#BE0F2C"/>
<path d="M174.806 55.8425C173.907 55.8425 173.607 55.3906 173.607 54.6417V48.7874C173.607 42.9328 170.761 39.9305 164.32 39.9305H158.029V44.7342H163.719C166.415 44.7342 167.764 45.6348 167.913 48.0369H165.966C159.825 48.0369 156.381 49.8379 156.381 54.6417C156.381 58.3946 158.778 60.7962 162.822 60.7962C165.369 60.7962 167.016 59.5954 168.365 58.2442C168.538 58.862 168.912 59.4042 169.428 59.7849C169.943 60.1656 170.571 60.3631 171.211 60.346H176.004V55.8425H174.806ZM163.871 56.1428C162.523 56.1428 161.624 55.3923 161.624 54.3414C161.624 52.5399 162.822 51.7893 165.818 51.7893H167.614C167.614 54.3414 166.118 56.1428 163.871 56.1428Z" fill="#BE0F2C"/>
<path d="M112.493 39.6301C106.351 39.6301 101.708 44.1336 101.708 50.2881C101.708 56.2927 106.351 60.7962 112.493 60.7962C118.634 60.7962 123.128 56.1428 123.128 50.1382C123.128 44.1336 118.634 39.6301 112.493 39.6301ZM112.493 55.6933C109.797 55.6933 107.999 53.5916 107.999 50.2894C107.999 46.8384 109.797 44.8854 112.493 44.8854C115.189 44.8854 116.838 46.8368 116.838 50.2894C116.836 53.5907 115.189 55.6933 112.493 55.6933Z" fill="#BE0F2C"/>
<path d="M125.225 45.9351C125.225 48.7874 126.723 50.2898 130.318 51.7897C133.164 52.9906 134.212 53.5912 134.212 54.4917C134.212 55.5426 133.613 55.6926 132.265 55.6926C129.768 55.754 127.296 55.1863 125.075 54.0415V58.8452C126.723 59.8961 129.869 60.6467 132.864 60.6467C137.358 60.6467 140.503 58.0946 140.503 54.3418C140.503 50.5889 137.658 49.2377 134.812 48.0381C132.265 46.8372 131.217 46.6869 131.217 45.7864C131.217 44.8858 131.816 44.5855 133.463 44.5855H140.504V39.7805H133.014C128.371 39.7805 125.225 42.0322 125.225 45.9351Z" fill="#BE0F2C"/>
</svg>
