<svg width="85" height="32" viewBox="0 0 85 32" fill="none" xmlns="http://www.w3.org/2000/svg">
<path d="M48.0834 4.71444C49.1504 4.71444 49.8617 4.07147 49.8617 3.07233C49.8617 2.14376 49.1504 1.50079 48.0834 1.50079C47.0165 1.50079 46.3052 2.14298 46.3052 3.07155C46.3762 4.14302 47.0875 4.71444 48.0834 4.71444Z" fill="#BE0F2C"/>
<path d="M24.6822 6.57178C24.5399 5.92882 23.9709 5.57166 23.3306 5.57166H22.2637V15.2149H25.1799V9.92911C25.1799 8.42912 26.1758 7.78616 27.5272 7.78616H28.1674V5.50031H27.4561C26.1764 5.50031 25.1799 5.92882 24.6822 6.57178Z" fill="#BE0F2C"/>
<path d="M54.4851 9.92911C54.4851 8.42912 55.481 7.78616 56.8323 7.78616H57.4726V5.50031H56.7613C55.481 5.50031 54.5563 5.92882 53.9871 6.57178C53.8448 5.92882 53.2758 5.57166 52.6356 5.57166H51.5688V15.2149H54.4851V9.92911Z" fill="#BE0F2C"/>
<path d="M16.36 5.28601C13.5148 5.28601 11.5942 7.35819 11.5942 10.3576C11.5942 13.2149 13.5858 15.3578 16.6444 15.3578C18.067 15.3578 19.2762 15.072 20.1288 14.4292V12.1434C19.1339 12.7146 18.1382 12.9296 16.928 12.9296C15.5765 12.9296 14.6518 12.2153 14.3674 11.0009H20.4855V9.85772C20.4855 7.14316 18.9206 5.28601 16.36 5.28601ZM14.4394 9.0003C14.724 8.07173 15.3641 7.50032 16.36 7.50032C17.2136 7.50032 17.7826 8.07173 17.9249 9.0003H14.4394Z" fill="#BE0F2C"/>
<path d="M31.8662 6.57178C31.7239 5.92882 31.1549 5.57166 30.5147 5.57166H29.4478V15.2149H32.364V9.92911C32.364 8.42912 33.3599 7.78616 34.7112 7.78616H35.3515V5.50031H34.6402C33.3605 5.50031 32.4352 5.92882 31.8662 6.57178Z" fill="#BE0F2C"/>
<path d="M48.4391 5.57166H46.7319V15.2149H49.6482V6.85739C49.7194 6.07172 49.2215 5.57166 48.4391 5.57166Z" fill="#BE0F2C"/>
<path d="M1.56494 4.50017H2.34729C2.77399 4.50017 2.91629 4.64308 2.91629 5.07159V15.4294H5.97502V10.1434H10.3851V7.64325H5.97502V4.50017H11.3088V1.92871H1.56494V4.50017Z" fill="#BE0F2C"/>
<path d="M65.937 12.429V9.57171C65.937 6.85734 64.5855 5.42871 61.5269 5.42871H58.6819V7.71456H61.1705C62.4508 7.71456 63.091 8.14308 63.1621 9.2861H62.3085C59.3932 9.2861 57.686 10.1431 57.686 12.429C57.686 14.2148 58.8953 15.3576 60.8158 15.3576C62.0251 15.3576 62.7364 14.8575 63.3764 14.1432C63.661 14.7862 64.1588 15.1433 64.799 15.1433H67.0752V13.0004H66.5062C66.4297 13.0075 66.3526 12.9975 66.2804 12.9713C66.2081 12.9451 66.1425 12.9032 66.0882 12.8487C66.0339 12.7942 65.9922 12.7283 65.966 12.6558C65.9399 12.5832 65.93 12.5058 65.937 12.429ZM61.3136 13.2148C61.1874 13.2199 61.0615 13.1998 60.943 13.1558C60.8246 13.1118 60.716 13.0447 60.6234 12.9584C60.5309 12.8721 60.4562 12.7683 60.4038 12.653C60.3513 12.5376 60.322 12.413 60.3177 12.2863C60.3177 11.4291 60.8867 11.1434 62.2382 11.1434H63.0918C63.0918 12.3576 62.3805 13.2148 61.3136 13.2148Z" fill="#BE0F2C"/>
<path d="M40.9708 15.3578C42.3934 15.3578 43.6026 15.072 44.5273 14.4292V12.1434C43.5314 12.7148 42.4638 12.9291 41.2554 12.9291C39.9038 12.9291 38.9792 12.2147 38.7658 11.0004H44.8119C44.9028 10.6019 44.9505 10.1948 44.9542 9.78599C44.954 7.07162 43.3889 5.21448 40.7574 5.21448C37.9122 5.21448 35.9917 7.28666 35.9917 10.2861C35.9917 13.2149 37.9122 15.3578 40.9708 15.3578ZM40.6862 7.50033C41.5398 7.50033 42.1798 8.07175 42.2511 9.00032H38.8369C39.1215 8.07175 39.6903 7.50033 40.6862 7.50033Z" fill="#BE0F2C"/>
<path d="M39.1215 23.9296C39.1215 21.3582 40.8287 19.9295 43.0342 19.9295C44.5278 19.9295 45.7371 20.358 47.0174 21.2153V18.5007C45.7027 17.6511 44.1701 17.2043 42.6067 17.215C38.6235 17.215 35.9917 20.0009 35.9917 24.001C35.9917 28.0011 38.7658 30.7156 42.8201 30.7156C44.3952 30.7368 45.9373 30.2621 47.2302 29.3584V26.5724C45.8076 27.501 44.456 27.9297 43.0334 27.9297C40.8285 27.8584 39.1215 26.4297 39.1215 23.9296Z" fill="#BE0F2C"/>
<path d="M70.9162 16.5007H67.9287V25.1438C67.9287 27.7153 69.5639 28.7154 71.7698 28.7154H73.1924V26.3582H72.1254C71.3431 26.3582 70.8451 25.9297 70.8451 24.9296V21.2866H73.6907V19.0008H70.845L70.916 16.5007H70.9162Z" fill="#BE0F2C"/>
<path d="M83.0082 26.5724C82.5815 26.5724 82.4392 26.3574 82.4392 26.001V23.2153C82.4392 20.4294 81.0877 19.0007 78.0291 19.0007H75.0416V21.2866H77.7437C79.024 21.2866 79.6643 21.7151 79.7353 22.8581H78.8107C75.8944 22.8581 74.2593 23.7151 74.2593 26.001C74.2593 27.7868 75.3973 28.9296 77.3178 28.9296C78.5271 28.9296 79.3094 28.3582 79.9497 27.7152C80.032 28.0092 80.2096 28.2672 80.4544 28.4484C80.6992 28.6296 80.9972 28.7235 81.3012 28.7154H83.5774V26.5724H83.0082ZM77.8158 26.7153C77.1755 26.7153 76.7488 26.3582 76.7488 25.8581C76.7488 25.0009 77.3178 24.6437 78.7404 24.6437H79.593C79.593 25.8581 78.8827 26.7153 77.8158 26.7153Z" fill="#BE0F2C"/>
<path d="M53.4183 18.8578C50.5018 18.8578 48.2969 21.0008 48.2969 23.9294C48.2969 26.7867 50.5018 28.9296 53.4183 28.9296C56.3347 28.9296 58.4684 26.7153 58.4684 23.8581C58.4684 21.0008 56.3345 18.8578 53.4183 18.8578ZM53.4183 26.5015C52.138 26.5015 51.2844 25.5014 51.2844 23.93C51.2844 22.2879 52.138 21.3585 53.4183 21.3585C54.6985 21.3585 55.4817 22.2871 55.4817 23.93C55.4809 25.501 54.6985 26.5015 53.4183 26.5015Z" fill="#BE0F2C"/>
<path d="M59.4641 21.858C59.4641 23.2153 60.1754 23.9302 61.8826 24.6439C63.2341 25.2153 63.7319 25.5011 63.7319 25.9297C63.7319 26.4297 63.4473 26.5011 62.8073 26.5011C61.6216 26.5303 60.4477 26.2602 59.3931 25.7154V28.0012C60.1754 28.5013 61.6693 28.8585 63.0917 28.8585C65.2255 28.8585 66.7192 27.6441 66.7192 25.8583C66.7192 24.0725 65.368 23.4295 64.0165 22.8587C62.8073 22.2873 62.3093 22.2157 62.3093 21.7872C62.3093 21.3587 62.5939 21.2158 63.3763 21.2158H66.7194V18.9294H63.1629C60.958 18.9294 59.4641 20.0009 59.4641 21.858Z" fill="#BE0F2C"/>
</svg>
