<svg width="67" height="62" viewBox="0 0 67 62" fill="none" xmlns="http://www.w3.org/2000/svg">
<path d="M13.8457 17.2576H15.3914C16.2345 17.2576 16.5156 17.5196 16.5156 18.3052V37.2936H22.5589V27.603H31.2721V23.0197H22.5589V17.2576H33.0971V12.5435H13.8457V17.2576Z" fill="#E71C35"/>
<path d="M36.5108 37.1084C36.5108 32.3942 39.8838 29.7752 44.2414 29.7752C47.1924 29.7752 49.5816 30.5607 52.1111 32.1322V27.1558C49.5137 25.5982 46.4856 24.7791 43.3968 24.7987C35.527 24.7987 30.3271 29.906 30.3271 37.2392C30.3271 44.5724 35.8081 49.5489 43.8183 49.5489C46.9303 49.5876 49.9772 48.7175 52.5315 47.0606V41.9533C49.7208 43.6556 47.0505 44.4416 44.2398 44.4416C39.8834 44.3108 36.5108 41.6917 36.5108 37.1084Z" fill="#E71C35"/>
</svg>
